<?xml version="1.0" standalone="no"?>
<!DOCTYPE svg PUBLIC "-//W3C//DTD SVG 1.1//EN" "http://www.w3.org/Graphics/SVG/1.1/DTD/svg11.dtd" >
<svg xmlns="http://www.w3.org/2000/svg">
<metadata>
Created by FontPrep 20130207 at Fri Jun 17 11:09:25 2016
 By Chameleon
  Luc as  de Groot 1994
</metadata>
<defs>
<font id="914a6822c96678a576c84973ef35da63" horiz-adv-x='1024' >
  <font-face 
    font-family="TheSerifBlack-Plain"
    font-weight="400"
    font-stretch="normal"
    units-per-em="2048"
    panose-1="2 0 5 3 5 0 0 2 0 4"
    ascent="1536"
    descent="-512"
    x-height="1018"
    cap-height="1382"
    bbox="-76 -961 3596.53 2427"
    underline-thickness="40"
    underline-position="-287"
    unicode-range="U+0020-FB02"
  />
<missing-glyph horiz-adv-x="1024" 
 />
    <glyph glyph-name=".notdef" horiz-adv-x="1024" 
 />
    <glyph glyph-name=".null" horiz-adv-x="0" 
 />
    <glyph glyph-name="nonmarkingreturn" horiz-adv-x="446" 
 />
    <glyph glyph-name="space" unicode=" " horiz-adv-x="446" 
 />
    <glyph glyph-name="exclam" unicode="!" horiz-adv-x="632" 
d="M313 381q45 0 84 -16.5t68 -44t45 -64.5t16 -80t-16 -81t-45 -65.5t-68 -43t-84 -15.5t-84 15.5t-67.5 43t-45 65.5t-16.5 81t16.5 80t45 64.5t67.5 44t84 16.5zM535 1495l-52 -1053h-327l-58 1053h437z" />
    <glyph glyph-name="quotedbl" unicode="&#x22;" horiz-adv-x="944" 
d="M879 1563l-41 -594h-281l-41 594h363zM428 1563l-41 -594h-281l-40 594h362z" />
    <glyph glyph-name="numbersign" unicode="#" horiz-adv-x="1460" 
d="M807 596l22 201h-180l-22 -201h180zM1352 317h-246l-33 -317h-328l33 317h-180l-33 -317h-325l32 317h-225v279h254l23 201h-215v278h243l31 307h326l-31 -307h180l31 307h328l-31 -307h227v-278h-256l-22 -201h217v-279z" />
    <glyph glyph-name="dollar" unicode="$" horiz-adv-x="1048" 
d="M123 373h258q5 -22 10 -88h23q76 0 123 21.5t47 61.5t-39 62.5t-96.5 42t-126 44t-165 96.5t-96.5 264q0 134 91 243.5t233 147.5v190h260v-170q141 -9 256 -35v-356h-256q-9 30 -14 86q-8 2 -11 2h-22q-70 0 -107.5 -20.5t-37.5 -54.5t38.5 -54t98 -40.5t225.5 -87
t166 -327.5q0 -137 -95.5 -251t-248.5 -158v-225h-260v204q-114 4 -254 31v371z" />
    <glyph glyph-name="percent" unicode="%" horiz-adv-x="1730" 
d="M1235 309q0 -121 59 -121q25 0 44.5 28.5t19.5 99.5t-15.5 92.5t-43.5 21.5q-64 0 -64 -121zM1659 327q0 -173 -108.5 -281.5t-270.5 -108.5t-255 98t-93 268t108.5 274.5t259.5 104.5q251 0 305 -132t54 -223zM1501 1249l-1022 -1312l-270 196l1022 1313zM423 1194
q-65 0 -65 -121t60 -121q25 0 44 28.5t19 99.5t-15 92.5t-43 21.5zM782 1091q0 -175 -109.5 -283t-269.5 -108q-161 0 -254.5 98.5t-93.5 267.5t108.5 274.5t260.5 105.5q250 0 304 -132t54 -223z" />
    <glyph glyph-name="ampersand" unicode="&#x26;" horiz-adv-x="1710" 
d="M461 441q0 -58 40 -104t102 -46q102 0 190 43q-172 138 -269 235q-63 -70 -63 -128zM664 1161q0 33 -18.5 56.5t-54.5 23.5t-57.5 -23.5t-21.5 -57.5q0 -63 72 -146q80 75 80 147zM1040 971h576v-252q-31 -6 -64.5 -10t-64.5 -9q-53 -178 -144 -311q80 -61 162 -119
q31 -4 64 -8t63 -10v-252h-397q-60 39 -164 117q-92 -63 -223.5 -104.5t-275.5 -41.5q-258 0 -379 121t-121 297q0 231 229 406q-90 102 -124 176t-34 159q0 169 125.5 280.5t336.5 111.5q212 0 319.5 -91.5t107.5 -248.5q0 -111 -57 -202t-166 -179q53 -43 118.5 -96.5
t135.5 -104.5q29 47 49 107l-72 12v252z" />
    <glyph glyph-name="quotesingle" unicode="'" horiz-adv-x="493" 
d="M428 1563l-41 -594h-281l-40 594h362z" />
    <glyph glyph-name="parenleft" unicode="(" horiz-adv-x="675" 
d="M53 583q0 534 273 986h350q-254 -430 -254 -976t262 -988h-360q-271 444 -271 978z" />
    <glyph glyph-name="parenright" unicode=")" horiz-adv-x="675" 
d="M621 587q0 -533 -275 -982h-352q258 443 258 986q0 544 -258 978h360q267 -449 267 -982z" />
    <glyph glyph-name="asterisk" unicode="*" horiz-adv-x="819" 
d="M778 1077l-129 -221l-157 145l47 -210h-258l47 210l-160 -143l-127 219l205 66l-205 65l129 222l158 -146l-47 211h256l-45 -211l157 146l129 -222l-205 -65z" />
    <glyph glyph-name="plus" unicode="+" horiz-adv-x="1167" 
d="M1126 373h-364v-373h-356v373h-365v311h365v369h356v-369h364v-311z" />
    <glyph glyph-name="comma" unicode="," 
d="M300 410q70 0 121.5 -33t98.5 -129t-22.5 -287.5t-286.5 -370.5l-150 134q114 122 129.5 195.5t-51.5 148.5q-39 43 -46 102t14.5 112.5t72 90.5t120.5 37z" />
    <glyph glyph-name="hyphen" unicode="-" horiz-adv-x="696" 
d="M614 381h-532v297h532v-297z" />
    <glyph glyph-name="period" unicode="." 
d="M464 353.5q68 -66.5 68 -159.5q0 -92 -66.5 -158.5t-159.5 -66.5t-158.5 66.5t-65.5 158.5q0 93 66.5 159.5t157.5 66.5q90 0 158 -66.5z" />
    <glyph glyph-name="slash" unicode="/" horiz-adv-x="886" 
d="M901 1382l-526 -1382h-377l528 1382h375z" />
    <glyph glyph-name="zero" unicode="0" horiz-adv-x="1230" 
d="M428 528q0 -229 190 -229q76 0 130.5 57.5t54.5 169.5q0 232 -185 232q-76 0 -133 -56.5t-57 -173.5zM1174 508q0 -110 -47.5 -215t-166.5 -213.5t-364 -108.5q-374 0 -456.5 189.5t-82.5 335.5q0 269 166.5 425t403.5 156q301 0 424 -163.5t123 -405.5z" />
    <glyph glyph-name="one" unicode="1" horiz-adv-x="802" 
d="M772 0h-741v246q81 16 202 24v445l-176 -72l-55 289l330 121h282v-783q101 -11 158 -24v-246z" />
    <glyph glyph-name="two" unicode="2" horiz-adv-x="983" 
d="M792 328h126v-328h-869v305l121 78q254 165 277.5 225t23.5 82q0 84 -96 84q-31 0 -62 -10q-2 -25 -14 -105h-240v347q169 67 380 67q212 0 331 -89t119 -243q0 -117 -68.5 -215t-185.5 -170l-55 -34v-5q134 11 212 11z" />
    <glyph glyph-name="three" unicode="3" horiz-adv-x="937" 
d="M376 1067q147 0 231.5 -25.5t167.5 -96t83 -232.5q0 -98 -54 -176t-151 -121v-4q125 -33 180.5 -114t55.5 -182q0 -209 -161 -343.5t-449 -134.5q-128 0 -238 26l29 324q93 -33 209 -33q204 0 204 127q0 121 -146.5 121t-227.5 -13v295q360 0 360 172q0 107 -94 107h-19
q-18 0 -39 -4q-6 -64 -14 -105h-240v346q166 66 313 66z" />
    <glyph glyph-name="four" unicode="4" horiz-adv-x="1175" 
d="M592 334v368h-2l-209 -370l79 1q79 1 132 1zM584 0h-500l-59 301l460 760h465v-727h174v-334h-174v-92q82 -8 158 -25v-233h-702v233q90 17 178 25v92z" />
    <glyph glyph-name="five" unicode="5" horiz-adv-x="937" 
d="M225 252q-63 0 -135 -10v811h754v-367l-404 4v-141q199 0 321 -103t122 -284q0 -234 -186 -380.5t-464 -146.5q-97 0 -184 17l33 328q88 -15 188 -15q101 0 158 43t57 107q0 137 -260 137z" />
    <glyph glyph-name="six" unicode="6" horiz-adv-x="1187" 
d="M748 446q0 158 -134 158q-66 0 -101.5 -41t-35.5 -109t33.5 -113.5t101.5 -45.5t102 42.5t34 108.5zM679 924q230 0 346 -121t116 -334t-158 -355.5t-399 -142.5t-381 150.5t-140 441.5q0 392 211.5 629.5t581.5 237.5q68 0 150 -5v-331q-96 14 -195 14
q-100 0 -200.5 -54t-121 -115.5t-24.5 -72.5l2 -2q84 60 212 60z" />
    <glyph glyph-name="seven" unicode="7" horiz-adv-x="958" 
d="M35 584v469h889v-314q-210 -515 -312 -1089h-413q103 552 313 1079h-150q-11 -105 -20 -145h-307z" />
    <glyph glyph-name="eight" unicode="8" horiz-adv-x="1157" 
d="M711 395q0 89 -156 158h-2q-41 -29 -75 -66t-34 -87t37 -81.5t99 -31.5t96.5 30.5t34.5 77.5zM698 1045q0 41 -29 69.5t-91 28.5t-92.5 -28t-30.5 -72t37.5 -75.5t99.5 -66.5l2 -2q45 35 74.5 70t29.5 76zM887 756q219 -134 219 -344t-157 -325.5t-391 -115.5t-370.5 106
t-136.5 297t205 328l-2 3q-191 113 -191 313t146 316t374 116q229 0 364.5 -97.5t135.5 -269.5q0 -111 -53 -186.5t-143 -140.5z" />
    <glyph glyph-name="nine" unicode="9" horiz-adv-x="1187" 
d="M436 598q0 -158 135 -158q68 0 101 46t33 112t-32 106.5t-97.5 40.5t-102.5 -41.5t-37 -105.5zM485 115q-212 0 -325 119t-113 330t153 358t394 147t385.5 -149.5t144.5 -452.5q0 -586 -296 -709t-515 -123q-64 0 -151 17v336q70 -27 180 -27q111 0 207 37.5t117.5 104.5
t25.5 77l-2 2q-85 -67 -205 -67z" />
    <glyph glyph-name="colon" unicode=":" 
d="M464 353.5q68 -66.5 68 -159.5q0 -92 -66.5 -158.5t-159.5 -66.5t-158.5 66.5t-65.5 158.5q0 93 66.5 159.5t157.5 66.5q90 0 158 -66.5zM532 744q0 -92 -67 -158t-159 -66q-93 0 -158.5 65.5t-65.5 158.5t66 160t158 67q91 0 158.5 -67.5t67.5 -159.5z" />
    <glyph glyph-name="semicolon" unicode=";" 
d="M300 410q70 0 121.5 -33t98.5 -129t-22 -286t-287 -372l-150 134q114 122 129.5 195.5t-51.5 148.5q-39 43 -46 102t14.5 112.5t72 90.5t120.5 37zM465 585.5q-67 -65.5 -159 -65.5q-93 0 -158.5 65.5t-65.5 158.5t66 160t158 67q91 0 158.5 -67.5t67.5 -159.5
q0 -93 -67 -158.5z" />
    <glyph glyph-name="less" unicode="&#x3c;" horiz-adv-x="1044" 
d="M63 510l658 635l248 -248l-424 -385l426 -387l-246 -252z" />
    <glyph glyph-name="equal" unicode="=" horiz-adv-x="1126" 
d="M1024 141h-922v297h922v-297zM1024 592h-922v297h922v-297z" />
    <glyph glyph-name="greater" unicode="&#x3e;" horiz-adv-x="1044" 
d="M981 510l-657 -635l-248 248l424 385l-426 387l245 252z" />
    <glyph glyph-name="question" unicode="?" horiz-adv-x="909" 
d="M582 176q0 -43 -16.5 -81t-45 -65.5t-67.5 -43t-84 -15.5t-84 15.5t-68 43t-45 65.5t-16 81t16 80t45 64.5t68 44t84 16.5t84 -16.5t67.5 -44t45 -64.5t16.5 -80zM708.5 738q-143.5 -113 -164 -172.5t0.5 -123.5h-365q-80 217 22.5 307.5t143.5 123t69.5 63.5t28.5 70
q0 78 -99 119.5t-288 41.5l45 338q384 -7 567 -140t183 -323q0 -191 -143.5 -304z" />
    <glyph glyph-name="at" unicode="@" horiz-adv-x="1595" 
d="M694 569q30 0 66.5 52.5t60.5 181.5l10 55q-18 8 -44 8q-47 0 -85 -68t-38 -149q0 -80 30 -80zM836 233q156 0 323 60v-262q-140 -68 -360 -68q-219 0 -490.5 87.5t-271.5 547.5q0 182 63.5 332.5t176 257t266 165t320.5 58.5q317 0 498 -159t181 -408q0 -250 -133 -383
t-356 -133q-86 0 -135.5 35.5t-55.5 101.5h-8q-91 -137 -240 -137q-84 0 -141 66t-57 188q0 231 113.5 361t342.5 130q130 0 232 -47l-57 -313q-14 -78 -6.5 -108t57.5 -30t92.5 54.5t42.5 199.5q0 220 -136 266t-296.5 46t-304.5 -142t-144 -356q0 -215 78 -286.5
t164 -97.5t242 -26z" />
    <glyph glyph-name="A" unicode="A" horiz-adv-x="1445" 
d="M809 639l-43 131q-47 139 -64 240h-4q-20 -120 -67 -262l-35 -109h213zM604 0h-584v248q48 12 89 16l364 1118h481l383 -1118q43 -4 88 -16v-248h-620v246q29 4 61.5 9t61.5 9l-27 80h-395l-25 -80l123 -18v-246z" />
    <glyph glyph-name="B" unicode="B" horiz-adv-x="1327" 
d="M696 307q70 0 117 32.5t47 92.5t-41 96.5t-131 36.5h-47l-51 -2v-252q36 -4 106 -4zM702 1085q-64 0 -112 -4v-233q16 -2 21 -2h61q90 0 132 36t42 92t-40 83.5t-104 27.5zM1251 1035q0 -91 -49 -169t-129 -118v-7q90 -31 144.5 -115t54.5 -181q0 -199 -151 -324
t-435 -125l-477 4h-178v246q80 16 178 24v842q-105 9 -178 25v245h168l561 11q356 0 423.5 -133.5t67.5 -224.5z" />
    <glyph glyph-name="C" unicode="C" horiz-adv-x="1167" 
d="M774 1399q164 0 324 -33v-483h-303q-14 74 -23 153q-20 4 -59 4q-93 0 -163.5 -84t-70.5 -261t78 -269t270 -92q125 0 248 41l21 -355q-161 -43 -342 -43q-352 0 -526.5 174.5t-174.5 483.5q0 364 192 564t529 200z" />
    <glyph glyph-name="D" unicode="D" horiz-adv-x="1443" 
d="M921 974q-60 95 -235 95h-55q-18 0 -41 -4v-739q25 -6 88 -6.5t118.5 22.5t120 95.5t64.5 257.5q0 184 -60 279zM1222 1391q171 0 171 -662q0 -352 -201.5 -545.5t-544.5 -193.5l-438 10h-178v246q80 16 178 24v842q-105 9 -178 25v245h168z" />
    <glyph glyph-name="E" unicode="E" horiz-adv-x="1116" 
d="M1051 412v-412h-1020v246q80 16 178 24v842q-105 9 -178 25v245h1013v-393h-294q-9 62 -15 94h-145v-243h123l14 73h252v-413h-252l-14 73h-123v-268h147l15 107h299z" />
    <glyph glyph-name="F" unicode="F" horiz-adv-x="1081" 
d="M31 1382h1007v-401h-295q-3 14 -14 96h-139v-260h127l14 74h252v-434h-252l-14 73h-127v-260q98 -8 178 -24v-246h-737v246q80 16 178 24v842q-105 9 -178 25v245z" />
    <glyph glyph-name="G" unicode="G" horiz-adv-x="1380" 
d="M762 -25q-341 0 -525 180.5t-184 512.5q0 331 218.5 534t582.5 203q184 0 401 -51v-439h-307q-14 70 -20 142q-40 8 -88 8q-186 0 -279.5 -105.5t-93.5 -273.5t81 -265t257 -97q43 0 78 10v149q-103 9 -172 25v246h639v-252q-85 -15 -86 -15v-415q-216 -97 -502 -97z" />
    <glyph glyph-name="H" unicode="H" horiz-adv-x="1593" 
d="M1563 0h-689v252q19 4 130 18v275h-414v-275q108 -14 129 -18v-252h-688v246q80 16 178 24v842q-105 9 -178 25v245h688v-252q-21 -4 -129 -18v-233h414v233q-111 14 -130 18v252h689v-245q-90 -18 -179 -25v-842q99 -8 179 -24v-246z" />
    <glyph glyph-name="I" unicode="I" horiz-adv-x="798" 
d="M768 0h-737v246q80 16 178 24v842q-105 9 -178 25v245h737v-245q-90 -17 -178 -25v-842q98 -8 178 -24v-246z" />
    <glyph glyph-name="J" unicode="J" horiz-adv-x="780" 
d="M80 1382h670v-252q-53 -12 -111 -18v-688q0 -304 -146.5 -375.5t-260.5 -71.5t-201 17v319q48 -16 104 -16q123 0 123 135v680q-105 9 -178 25v245z" />
    <glyph glyph-name="K" unicode="K" horiz-adv-x="1513" 
d="M823 1382h629v-249q-27 -4 -55.5 -8.5t-48.5 -6.5l-332 -395l362 -459q32 -3 105 -14v-250h-668v252q18 4 35.5 6t30.5 4l-291 404v-396q57 -6 110 -18v-252h-669v246q80 16 178 24v842q-105 9 -178 25v245h669v-252q-53 -12 -110 -18v-362l291 370q-56 9 -58 10v252z
" />
    <glyph glyph-name="L" unicode="L" horiz-adv-x="1064" 
d="M1034 457v-457h-1003v246q80 16 178 24v842q-105 9 -178 25v245h737v-245q-90 -17 -178 -25v-797h135q13 111 18 142h291z" />
    <glyph glyph-name="M" unicode="M" horiz-adv-x="1945" 
d="M100 1382h656l145 -479q38 -120 74 -313h4q31 170 80 319l147 473h643v-245q-90 -17 -178 -25l160 -848q43 -2 84 -12v-252h-604v246q72 11 119 18l-52 277q-10 61 -22.5 125.5t-16.5 117.5h-4q-35 -191 -86 -372l-112 -412h-357l-108 367q-62 204 -92 417h-5
q-16 -127 -38 -252l-45 -268q58 -8 118 -18v-246h-579v252q41 10 84 12l164 848q-106 9 -179 25v245z" />
    <glyph glyph-name="N" unicode="N" horiz-adv-x="1583" 
d="M31 1382h665l252 -479q20 -41 39 -76.5t39.5 -81t63.5 -139.5q-14 127 -14 253t-1 253q-59 6 -110 18v252h587v-252q-53 -12 -110 -18v-1112h-484l-256 477q-60 115 -137 311q12 -129 11 -259t-1 -259q113 -16 125 -18v-252h-669v246q80 16 178 24v842q-105 9 -178 25
v245z" />
    <glyph glyph-name="O" unicode="O" horiz-adv-x="1435" 
d="M987 696q0 367 -270 367q-110 0 -189 -90.5t-79 -270.5t60 -280t200 -100q181 0 229.5 131.5t48.5 242.5zM1190.5 175.5q-202.5 -204.5 -510.5 -204.5t-472.5 183t-164.5 514t150.5 484t278.5 206t268 53t258 -38t256.5 -170t138.5 -478q0 -345 -202.5 -549.5z" />
    <glyph glyph-name="P" unicode="P" horiz-adv-x="1220" 
d="M805 909q0 77 -40 125.5t-138 48.5h-13q-12 0 -24 -2v-338q10 -2 17 -2h11q74 0 130.5 45.5t56.5 122.5zM1052 1276q146 -117 146 -340t-143 -367.5t-408 -144.5h-22q-14 0 -35 2v-156q98 -8 178 -24v-246h-737v246q80 16 178 24v842q-105 9 -178 25v245h174l422 11
q279 0 425 -117z" />
    <glyph glyph-name="Q" unicode="Q" horiz-adv-x="1435" 
d="M987 696q0 367 -270 367q-110 0 -189 -90.5t-79 -270.5t60 -280t200 -100q181 0 229.5 131.5t48.5 242.5zM1263 -152q73 0 167 15v-332q-223 -39 -418 0t-278 44t-169 -5v332q176 18 279.5 2.5t162 -27.5t121 -20.5t135.5 -8.5zM1190.5 175.5
q-202.5 -204.5 -510.5 -204.5t-472.5 183t-164.5 514t150.5 484t278.5 206t268 53t258 -38t256.5 -170t138.5 -478q0 -345 -202.5 -549.5z" />
    <glyph glyph-name="R" unicode="R" horiz-adv-x="1327" 
d="M670 774q60 0 109.5 40t49.5 110q0 156 -167 155q-52 0 -72 -4v-297q20 -4 80 -4zM1231 961q0 -111 -56.5 -210.5t-168.5 -152.5q12 -16 21 -32.5t20 -33.5l145 -264q23 -4 49.5 -7t48.5 -7v-254h-411l-248 504h-41v-234l88 -18v-252h-647v246q80 16 178 24v842
q-105 9 -178 25v245h164l487 11q264 0 406.5 -101.5t142.5 -330.5z" />
    <glyph glyph-name="S" unicode="S" horiz-adv-x="1038" 
d="M600 1094q-80 0 -113.5 -28t-33.5 -70t41 -68.5t102 -50t235.5 -90t174.5 -328.5q0 -212 -159 -349t-419 -137q-173 0 -346 33v428h305q9 -79 16 -133h29q78 0 121 27.5t43 75.5t-41 76t-102.5 49.5t-133 46t-174 99.5t-102.5 283t147.5 329.5t415.5 121.5q166 0 328 -33
v-407h-305q-14 98 -17 125h-12z" />
    <glyph glyph-name="T" unicode="T" horiz-adv-x="1277" 
d="M31 926v456h1216v-456h-291q-13 75 -20 141h-107v-797q99 -8 179 -24v-246h-738v246q81 16 179 24v797h-107q-7 -66 -20 -141h-291z" />
    <glyph glyph-name="U" unicode="U" horiz-adv-x="1441" 
d="M803 1382h608v-252q-53 -12 -106 -18v-573q0 -568 -600 -568q-451 0 -507.5 209t-56.5 320v612q-59 6 -110 18v252h616v-252q-14 -3 -125 -18v-594q0 -111 42 -169t159 -58t161 54t44 183v584q-111 15 -125 18v252z" />
    <glyph glyph-name="V" unicode="V" horiz-adv-x="1388" 
d="M780 1382h588v-252q-41 -10 -84 -12l-362 -1118h-449l-369 1118q-43 2 -84 12v252h613v-245q-29 -4 -61.5 -9.5t-61.5 -9.5l129 -428q16 -55 33.5 -114.5t34.5 -131.5h4l11 62q12 63 54 205l123 407l-119 19v245z" />
    <glyph glyph-name="W" unicode="W" horiz-adv-x="1988" 
d="M1389 1382h579v-252q-41 -10 -84 -12l-272 -1118h-463l-115 518q-33 157 -53 352h-2q-10 -150 -51 -338l-121 -532h-432l-271 1118q-43 2 -84 12v252h609v-245l-125 -19l69 -301q29 -120 43 -301h2q25 190 52 295l145 571h383l141 -548q28 -104 54 -306h2q25 176 55 322
l57 268l-118 19v245z" />
    <glyph glyph-name="X" unicode="X" horiz-adv-x="1527" 
d="M885 1382h606v-249q-27 -4 -55.5 -8.5t-49.5 -6.5l-362 -424l379 -430q37 -4 104 -14v-250h-696v252q18 4 35.5 6t30.5 4l-150 197l-160 -197l66 -10v-252h-613v250q76 11 105 14l381 434l-369 420q-54 5 -104 15v249h688v-252q-18 -4 -35.5 -6t-30.5 -4l142 -188
l153 188l-65 10v252z" />
    <glyph glyph-name="Y" unicode="Y" horiz-adv-x="1302" 
d="M1018 0h-737v246q80 16 178 24v174l-355 674q-50 6 -84 12v252h588v-252q-41 -10 -80 -12l68 -145q16 -35 32.5 -71t28.5 -73h7q40 97 63 142l74 147q-43 2 -84 12v252h565v-252q-41 -10 -84 -12l-358 -672v-176q98 -8 178 -24v-246z" />
    <glyph glyph-name="Z" unicode="Z" horiz-adv-x="1093" 
d="M1018 457v-457h-942v301l430 692q34 57 53 78q-16 -2 -21 -2h-137q-14 -108 -16 -123h-305v436h938v-315l-455 -688q-10 -14 -18 -27.5t-21 -29.5q16 2 40 2h141q7 54 16 133h297z" />
    <glyph glyph-name="bracketleft" unicode="[" horiz-adv-x="688" 
d="M621 -436h-519v2044h519v-301h-166v-1440h166v-303z" />
    <glyph glyph-name="backslash" unicode="\" horiz-adv-x="860" 
d="M889 0h-363l-544 1382h358z" />
    <glyph glyph-name="bracketright" unicode="]" horiz-adv-x="688" 
d="M586 -436h-518v303h165v1440h-165v301h518v-2044z" />
    <glyph glyph-name="asciicircum" unicode="^" horiz-adv-x="1095" 
d="M1022 803l-262 -131l-230 452l-219 -452l-243 127l329 583h279z" />
    <glyph glyph-name="underscore" unicode="_" horiz-adv-x="1024" 
d="M1024 -516h-1024v303h1024v-303z" />
    <glyph glyph-name="grave" unicode="`" horiz-adv-x="778" 
d="M725 1335l-117 -219l-473 182l137 261z" />
    <glyph glyph-name="a" unicode="a" horiz-adv-x="1171" 
d="M606 385v33q-101 0 -153 -20t-52 -78q0 -68 76 -68q57 0 93 40t36 93zM354 -25q-154 0 -228.5 83.5t-74.5 197.5q0 204 155 294.5t400 94.5v37q0 47 -28.5 65.5t-90.5 18.5t-102 -10q-3 -23 -14 -86h-240v325q207 54 356 54q278 0 387 -90.5t109 -288.5v-389
q61 -10 158 -21v-246q-231 -25 -498 -16q0 84 8 131h-2q-37 -72 -116.5 -113t-178.5 -41z" />
    <glyph glyph-name="b" unicode="b" horiz-adv-x="1165" 
d="M555 272q78 0 122 60.5t44 183.5t-24.5 169t-76 46t-91.5 -58.5t-40 -176.5v-215q27 -9 66 -9zM489 1139q0 -115 -14 -211h2q35 51 102.5 82.5t161.5 31.5q186 0 279.5 -130t93.5 -365t-150.5 -404.5t-426.5 -169.5q-228 0 -420 58v1183q-71 11 -178 21v244
q253 26 550 18v-358z" />
    <glyph glyph-name="c" unicode="c" horiz-adv-x="915" 
d="M245 44q-196 69 -196 437q0 240 141 399.5t428 159.5q118 0 232 -32v-373h-244q-10 64 -14 90q-6 2 -23 2q-53 0 -93 -52t-40 -165t54.5 -161t158.5 -48t182 33l23 -322q-137 -37 -275 -37t-334 69z" />
    <glyph glyph-name="d" unicode="d" horiz-adv-x="1236" 
d="M604 745q-160 0 -160 -256q0 -111 25 -157.5t76 -46.5t91 60t40 183v209q-31 8 -72 8zM144.5 103q-93.5 130 -93.5 365t147.5 404.5t409.5 169.5q40 0 68 -4v176q-71 11 -178 21v244q254 27 551 18v-1216q64 -10 157 -21v-244q-218 -27 -495 -18q0 64 6 117h-4
q-99 -142 -287 -142t-281.5 130z" />
    <glyph glyph-name="e" unicode="e" horiz-adv-x="1073" 
d="M547 774q-51 0 -85 -39t-38 -102h229q4 74 -25.5 107.5t-80.5 33.5zM189.5 100q-140.5 125 -140.5 382t133 409.5t367 152.5t350.5 -135t116.5 -358q0 -78 -12 -160h-578q4 -53 56.5 -91t186.5 -38t277 64l33 -279q-179 -72 -414 -72t-375.5 125z" />
    <glyph glyph-name="f" unicode="f" horiz-adv-x="813" 
d="M709 1214q-117 0 -117 -100v-96h182v-287h-182v-461q98 -8 178 -24v-246h-729v246q80 16 178 24v461h-178v287h178v94q0 201 102.5 303.5t340.5 102.5q93 0 176 -17l-23 -303q-53 16 -106 16z" />
    <glyph glyph-name="g" unicode="g" horiz-adv-x="1136" 
d="M420 -117q0 -104 137 -104q86 0 126 30.5t40 66.5q0 85 -92 85h-174q-37 -29 -37 -78zM659 670q0 47 -31.5 77.5t-87.5 30.5t-88 -28.5t-32 -75.5t32 -78t88 -31t87.5 29t31.5 76zM735 244q352 0 352 -312q0 -177 -159 -305.5t-424 -128.5q-215 0 -332 75t-117 228
q0 102 53.5 155.5t79.5 66.5q-96 49 -96 161q0 66 37 120t90 75q-70 35 -110.5 105.5t-40.5 159.5q0 180 120.5 290t360.5 110q101 0 203 -26h342v-293h-90q4 -10 4 -13v-30q0 -172 -115 -267.5t-338 -95.5h-43q-25 -12 -25 -37q0 -24 25 -31t109 -7h114z" />
    <glyph glyph-name="h" unicode="h" horiz-adv-x="1359" 
d="M1329 0h-530v643q0 84 -59 84t-108.5 -72t-49.5 -161v-224q108 -14 129 -18v-252h-680v246q80 16 178 24v944q-71 11 -178 21v244q254 27 551 18v-375q0 -112 -19 -211h2q45 57 122 94t172 37q168 0 240 -88t72 -233v-451q101 -11 158 -24v-246z" />
    <glyph glyph-name="i" unicode="i" horiz-adv-x="780" 
d="M750 0h-709v246q80 16 178 24v467q-71 11 -178 21v243q254 27 551 19v-750q92 -9 158 -24v-246zM564.5 1159q-64.5 -63 -158.5 -63q-93 0 -158.5 63t-65.5 153t68 152t156 62t155.5 -62t67.5 -152t-64.5 -153z" />
    <glyph glyph-name="j" unicode="j" horiz-adv-x="681" 
d="M586 -23q0 -338 -172 -402t-276 -64t-187 16l18 313q49 -18 125 -18q119 0 119 112v803q-71 11 -178 21v243q254 27 551 19v-1043zM556 1159q-65 -63 -159 -63t-158.5 63t-64.5 152.5t66.5 152t156.5 62.5q89 0 156.5 -62t67.5 -152t-65 -153z" />
    <glyph glyph-name="k" unicode="k" horiz-adv-x="1368" 
d="M666 1018h639v-252q-49 -11 -121 -16l-185 -205l209 -275q59 -6 119 -18v-252h-399l-346 494v-224q57 -6 92 -18v-252h-643v246q80 16 178 24v944q-71 11 -178 21v244q254 27 551 18v-934l143 193q-33 2 -59 10v252z" />
    <glyph glyph-name="l" unicode="l" horiz-adv-x="770" 
d="M739 0h-708v246q80 16 178 24v944q-71 11 -178 21v244q254 27 551 18v-1227q91 -8 157 -24v-246z" />
    <glyph glyph-name="m" unicode="m" horiz-adv-x="1951" 
d="M807 631q-1 96 -55 96q-58 0 -109 -71t-51 -164v-222q108 -14 129 -18v-252h-680v246q80 16 178 24v467q-71 11 -178 21v243q253 27 524 19q0 -71 -10 -139h2q47 76 129 118.5t184 42.5q214 0 277 -161q43 76 124 118.5t183 42.5q309 0 309 -348v-424q89 -8 158 -24v-246
h-530v631q0 96 -55 96q-58 0 -109 -70.5t-51 -164.5v-222q108 -14 129 -18v-252h-498v631z" />
    <glyph glyph-name="n" unicode="n" horiz-adv-x="1370" 
d="M1339 0h-530v643q0 84 -58 84t-108.5 -71.5t-50.5 -159.5v-226q108 -14 129 -18v-252h-680v246q80 16 178 24v467q-71 11 -178 21v243q252 27 522 19q0 -79 -10 -137h2q47 68 128 113.5t181 45.5q173 0 245.5 -88.5t72.5 -232.5v-451q91 -8 157 -24v-246z" />
    <glyph glyph-name="o" unicode="o" horiz-adv-x="1155" 
d="M721 518q0 206 -128 205q-66 0 -112.5 -47t-46.5 -161t32 -165t106 -51t111.5 57.5t37.5 161.5zM47 479q0 253 157 408t405 155q247 0 373 -133t126 -379t-159 -400.5t-530.5 -154.5t-371.5 504z" />
    <glyph glyph-name="p" unicode="p" horiz-adv-x="1247" 
d="M652 272q73 0 117 60.5t44 183.5t-24.5 170t-75.5 47t-91 -60.5t-40 -183.5v-208q36 -9 70 -9zM827 1042q193 0 286 -129t93 -344q0 -415 -204.5 -501t-348.5 -86q-45 0 -71 6v-195q98 -8 178 -24v-246h-729v246q80 16 178 24v944q-71 11 -178 21v243q251 27 518 19
q0 -49 -6 -117h4q87 139 280 139z" />
    <glyph glyph-name="q" unicode="q" horiz-adv-x="1144" 
d="M444 489q0 -204 99 -204q53 0 93 61.5t40 190.5v202q-36 6 -72 6q-160 0 -160 -256zM1217 -477h-719v246q80 16 178 24v92q0 128 14 221h-4q-78 -133 -260 -133t-278.5 121t-96.5 365t151.5 413.5t430.5 169.5q223 0 416 -34v-1215q80 -7 168 -24v-246z" />
    <glyph glyph-name="r" unicode="r" horiz-adv-x="894" 
d="M592 426v-156q98 -8 178 -24v-246h-729v246q80 16 178 24v467q-71 11 -178 21v243q252 27 522 19q0 -52 -10 -154h2q99 185 307 178l-18 -368q-129 29 -190.5 -27.5t-61.5 -222.5z" />
    <glyph glyph-name="s" unicode="s" horiz-adv-x="909" 
d="M502 788q-92 0 -92 -43t33.5 -61t139 -53t197.5 -93t92 -188q0 -167 -137 -271t-358 -104q-139 0 -307 35v326h245q6 -25 11 -90q32 -8 75 -8q97 0 97 45t-34 62t-85 33.5t-196.5 66t-145.5 243.5q0 155 123 254.5t354 99.5q126 0 309 -34v-314h-243q-10 35 -15 90
q-16 4 -21 4h-42z" />
    <glyph glyph-name="t" unicode="t" horiz-adv-x="778" 
d="M150 313v418h-130v287h127v287l373 100v-387h193v-287h-191v-342q0 -57 19.5 -80.5t68.5 -23.5t103 14v-293q-223 -57 -369.5 -21t-170 133t-23.5 195z" />
    <glyph glyph-name="u" unicode="u" horiz-adv-x="1339" 
d="M506 -25q-175 0 -246.5 89.5t-71.5 232.5v440q-64 10 -157 21v246q227 24 530 16v-645q0 -84 59 -84t108.5 72t49.5 159v217q-95 13 -129 17v250q218 22 502 14v-739q61 -10 158 -21v-246q-231 -25 -498 -16q0 63 8 137h-4q-47 -68 -128 -114t-181 -46z" />
    <glyph glyph-name="v" unicode="v" horiz-adv-x="1173" 
d="M639 1018h514v-252q-41 -10 -82 -12l-237 -754h-492l-240 754q-41 2 -82 12v252h525v-252q-2 -1 -58 -8l27 -76q46 -127 82 -297h4q37 181 74 297l22 76l-57 8v252z" />
    <glyph glyph-name="w" unicode="w" horiz-adv-x="1710" 
d="M1212 1018h478v-252q-41 -10 -82 -12l-222 -754h-405l-68 238q-30 110 -61 262h-2q-22 -117 -64 -256l-69 -244h-395l-220 754q-41 2 -82 12v252h515v-252q-20 -6 -48 -8l17 -62q32 -111 59 -239h4q22 143 72 301l80 260h315l74 -260q42 -147 76 -301h4q12 76 47 213
l25 88l-48 8v252z" />
    <glyph glyph-name="x" unicode="x" horiz-adv-x="1103" 
d="M1083 0h-438l-110 272l-111 -272h-404v252q31 6 65 10t65 8l151 248l-139 230q-31 4 -65 8t-64 10v252h411l119 -268l117 268h391v-252q-31 -6 -64.5 -10t-64.5 -8l-125 -232l137 -246q31 -4 65 -8t64 -10v-252z" />
    <glyph glyph-name="y" unicode="y" horiz-adv-x="1173" 
d="M639 1018h514v-252q-41 -10 -82 -12l-270 -854q-102 -323 -254 -360.5t-247 -37.5t-181 21l16 315q87 -26 143 -26q124 0 156 112l23 76h-115l-240 754q-49 4 -82 12v252h525v-252q-2 -1 -58 -8l27 -76q46 -127 82 -297h4q37 181 74 297l22 76l-57 8v252z" />
    <glyph glyph-name="z" unicode="z" horiz-adv-x="960" 
d="M899 379v-379h-838v279l404 473q-20 -4 -82 -4h-55q-6 -32 -15 -91h-252v361h824v-281l-391 -450q18 2 23 2h116l14 90h252z" />
    <glyph glyph-name="braceleft" unicode="{" horiz-adv-x="802" 
d="M586 260v-156q0 -152 30 -194.5t123 -42.5v-303h-53q-238 0 -343 123t-105 415v158q0 187 -75 209.5t-114 24.5v274q96 5 142.5 50.5t46.5 170.5v86q0 292 106 412.5t342 120.5h53v-301q-93 0 -123 -40.5t-30 -191.5v-86q0 -268 -75 -309t-112 -47v-4q187 -30 187 -369z
" />
    <glyph glyph-name="bar" unicode="|" horiz-adv-x="557" 
d="M420 -512h-297v2048h297v-2048z" />
    <glyph glyph-name="braceright" unicode="}" horiz-adv-x="802" 
d="M217 260q0 338 186 369v4q-86 14 -136 94.5t-50 261.5v86q0 151 -30 191.5t-124 40.5v301h54q234 0 341 -120t107 -413v-86q0 -184 74 -201.5t115 -19.5v-274q-91 -4 -140 -55t-49 -179v-158q0 -293 -105.5 -415.5t-342.5 -122.5h-54v303q94 0 124 42.5t30 194.5v156z
" />
    <glyph glyph-name="asciitilde" unicode="~" horiz-adv-x="1153" 
d="M345 444q-54 0 -105.5 -22.5t-81.5 -54.5l-111 280q136 131 334 131q102 0 216.5 -47t168.5 -47q114 0 223 94l111 -274q-113 -152 -334 -152q-81 0 -174.5 32t-143 46t-103.5 14z" />
    <glyph glyph-name="nonbreakingspace" unicode="&#xa0;" horiz-adv-x="819" 
 />
    <glyph glyph-name="exclamdown" unicode="&#xa1;" horiz-adv-x="632" 
d="M500 -479h-404l35 1052h328zM514 840q0 -43 -16.5 -81t-45 -65.5t-67.5 -43t-84 -15.5t-84 15.5t-67.5 43t-45 65.5t-16.5 81t16.5 79.5t45 64.5t67.5 44t84 16t84 -16t67.5 -44t45 -64.5t16.5 -79.5z" />
    <glyph glyph-name="cent" unicode="&#xa2;" horiz-adv-x="999" 
d="M692 -139h-274v198q-171 27 -258.5 157t-87.5 321q0 297 131 394t215 120v192h274v-176q88 -2 199 -31v-377h-244q-7 61 -14 105q-15 2 -23 2h-14q-53 2 -95 -50t-42 -152t49 -143.5t156 -43.5t215 33l24 -326q-147 -26 -211 -31v-192z" />
    <glyph glyph-name="sterling" unicode="&#xa3;" horiz-adv-x="1103" 
d="M1026 457v-457h-930v291q74 23 121 60.5t47 127.5q0 6 -10 113h-145v287h116q-4 35 -11 78.5t-7 84.5q0 209 109.5 308.5t342.5 99.5q170 0 299 -37v-366h-243q-8 49 -15 94q-8 2 -24 2q-90 0 -90 -115q0 -6 14 -149h207v-287h-178q4 -28 4 -64q0 -127 -86 -217
q40 4 96 4h74q12 95 18 142h291z" />
    <glyph glyph-name="currency" unicode="&#xa4;" horiz-adv-x="1136" 
d="M444 489q0 -111 25 -155.5t76 -44.5t91 59.5t40 188.5v198q-24 8 -72 8q-160 0 -160 -254zM670 1042q185 0 379 -34v-975q0 -247 -139 -387t-472 -140q-176 0 -329 43l28 336q151 -65 294 -65t197 41t54 131v14q0 56 8 105h-4q-37 -63 -103.5 -98.5t-152.5 -35.5
q-186 0 -282.5 122t-96.5 364t108.5 363.5t217 168.5t293.5 47z" />
    <glyph glyph-name="yen" unicode="&#xa5;" horiz-adv-x="1277" 
d="M449 293h-310v194h310v84h-310v191h189l-224 356q-50 6 -84 12v252h570v-252q-39 -8 -84 -12l53 -88q60 -96 82 -141h6q19 41 92 151l52 78q-43 2 -84 12v252h550v-252q-41 -10 -83 -12l-228 -356h189v-191h-310v-84h310v-194h-310v-51q90 -8 179 -25v-217h-734v217
q90 18 179 25v51z" />
    <glyph glyph-name="section" unicode="&#xa7;" horiz-adv-x="1093" 
d="M416 695q0 -40 7 -63.5t41 -61.5t183 -150q33 29 33 74t-15.5 73.5t-44 57t-72.5 61.5t-99 82q-33 -33 -33 -73zM705 1231q-138 0 -138 -67q0 -34 33 -64.5t82 -65.5t188.5 -137t139.5 -346q0 -98 -45 -180t-109 -129q74 -83 74 -225t-137.5 -254.5t-432.5 -112.5
q-94 0 -182 18l21 316q80 -23 167 -23q86 0 122 24.5t36 57.5t-32.5 62.5t-82 62.5t-187.5 131.5t-138 337.5q0 98 43 180t109 129q-72 84 -72 213q0 250 196.5 314.5t325.5 64.5t184 -16l-16 -312q-73 21 -149 21z" />
    <glyph glyph-name="dieresis" unicode="&#xa8;" horiz-adv-x="1118" 
d="M504 1311q0 -78 -54.5 -132.5t-132 -54.5t-132 54.5t-54.5 132.5t54.5 132t132 54t132 -54t54.5 -132zM948 1311q0 -78 -54 -132.5t-132 -54.5t-132.5 54.5t-54.5 132.5t54.5 132t132.5 54t132 -54t54 -132z" />
    <glyph glyph-name="copyright" unicode="&#xa9;" horiz-adv-x="1576" 
d="M799 319q-188 0 -276.5 93.5t-88.5 251.5q0 262 142.5 323.5t234.5 61.5t182 -23v-272h-182l-10 61h-17q-67 0 -67 -123q0 -80 30.5 -108.5t94.5 -28.5t143 25l16 -234q-118 -27 -202 -27zM788.5 1126q-92.5 0 -173 -34.5t-142 -96t-96.5 -142.5t-35 -173t35 -173
t96.5 -142.5t142 -96.5t173 -35t173 35t142 96.5t96.5 142.5t35 173t-35 173t-96.5 142.5t-142 96t-173 34.5zM788.5 1399q149.5 0 280.5 -56.5t228.5 -153.5t153.5 -228.5t56 -281t-56 -280.5t-153.5 -228t-228.5 -153.5t-280.5 -56.5t-280.5 56.5t-228.5 153.5t-153.5 228
t-56 280.5t56 281t153.5 228.5t228.5 153.5t280.5 56.5z" />
    <glyph glyph-name="ordfeminine" unicode="&#xaa;" horiz-adv-x="942" 
d="M485 905v25q-82 0 -121.5 -15t-39.5 -57q0 -52 59 -53q45 0 73.5 30.5t28.5 69.5zM287 596q-123 0 -180.5 62.5t-57.5 149.5q0 152 122 222t314 74v26q0 35 -22.5 49.5t-74.5 14.5t-77 -8q-5 -33 -12 -64h-188v246q159 41 279 41q223 0 307.5 -68.5t84.5 -218.5v-262
q93 -13 136 -16v-217q-211 -23 -404 -15q0 58 6 101h-2q-29 -55 -91 -86t-140 -31z" />
    <glyph glyph-name="guillemotleft" unicode="&#xab;" horiz-adv-x="1167" 
d="M1090 817l-168 -303l174 -297l-297 -127l-230 424l236 428zM555 838l-154 -324l160 -317l-307 -123l-205 440l211 444z" />
    <glyph glyph-name="logicalnot" unicode="&#xac;" horiz-adv-x="1228" 
d="M1120 100h-334v283h-725v301h1059v-584z" />
    <glyph glyph-name="registered" unicode="&#xae;" horiz-adv-x="1159" 
d="M627 1163q0 33 -41 33h-10q-9 0 -13 -2v-61l21 -3q43 0 43 33zM784 1178q0 -81 -57 -115q4 -6 7 -12.5t5 -10.5l21 -61q6 -2 13 -3t13 -3v-101h-151l-41 146h-31v-39q10 0 29 -6v-101h-207v99q11 4 37 8v227l-37 8v99h51l16 1l140 3q192 0 192 -139zM889 1091.5
q0 63.5 -24.5 120t-66.5 98.5t-98.5 66.5t-120 24.5t-120 -24.5t-98.5 -66.5t-66.5 -98.5t-24.5 -120t24.5 -120t66.5 -98.5t98.5 -66.5t120 -24.5t120 24.5t98.5 66.5t66.5 98.5t24.5 120zM948.5 731.5q-151.5 -147.5 -368.5 -147.5q-216 0 -368.5 147t-152.5 360
t151.5 360.5t369.5 147.5t369 -147.5t151 -360.5q0 -212 -151.5 -359.5z" />
    <glyph glyph-name="macron" unicode="&#xaf;" horiz-adv-x="583" 
d="M487 1180h-432v266h432v-266z" />
    <glyph glyph-name="macron" unicode="&#x2c9;" horiz-adv-x="583" 
d="M487 1180h-432v266h432v-266z" />
    <glyph glyph-name="degree" unicode="&#xb0;" horiz-adv-x="829" 
d="M492 1213q0 39 -23 66.5t-61 27.5t-63.5 -27t-25.5 -72t24 -69.5t65 -24.5t62.5 30t21.5 69zM650.5 971.5q-107.5 -86.5 -262.5 -86.5t-245 85t-90 235t109.5 238.5t267.5 88.5q157 0 242.5 -87.5t85.5 -237.5q0 -149 -107.5 -235.5z" />
    <glyph glyph-name="plusminus" unicode="&#xb1;" horiz-adv-x="1249" 
d="M1135 -213h-1020v311h1020v-311zM1147 522h-344v-342h-357v342h-344v307h344v338h357v-338h344v-307z" />
    <glyph glyph-name="acute" unicode="&#xb4;" horiz-adv-x="819" 
d="M745 1300l-473 -182l-112 215l452 223z" />
    <glyph glyph-name="mu" unicode="&#xb5;" horiz-adv-x="1234" 
d="M1122 0h-348v37q0 37 4 72h-2q-25 -51 -77 -87t-111 -36t-103 16h-2q2 -33 2 -79v-400h-372v1495h372v-590q0 -123 41 -134t68 -11q62 0 109 64.5t47 174.5v496h372v-1018z" />
    <glyph glyph-name="mu" unicode="&#x3bc;" horiz-adv-x="1234" 
d="M1122 0h-348v37q0 37 4 72h-2q-25 -51 -77 -87t-111 -36t-103 16h-2q2 -33 2 -79v-400h-372v1495h372v-590q0 -123 41 -134t68 -11q62 0 109 64.5t47 174.5v496h372v-1018z" />
    <glyph glyph-name="paragraph" unicode="&#xb6;" horiz-adv-x="1253" 
d="M610 422q-267 0 -399.5 134.5t-132.5 352.5t146.5 345.5t385.5 127.5v-960zM776 106v1276h422v-303h-117v-1276h-438v303h133z" />
    <glyph glyph-name="periodcentered" unicode="&#xb7;" horiz-adv-x="655" 
d="M485.5 741.5q67.5 -67.5 67.5 -158.5t-66 -158t-160 -67q-93 0 -159 66t-66 159t67.5 159.5t157.5 66.5q91 0 158.5 -67.5z" />
    <glyph glyph-name="cedilla" unicode="&#xb8;" horiz-adv-x="819" 
d="M168 -393q185 107 78 289h332q115 -213 -2 -302.5t-230 -123.5z" />
    <glyph glyph-name="ordmasculine" unicode="&#xba;" horiz-adv-x="890" 
d="M553 1000q1 159 -99 159q-118 1 -118 -159t104 -160q51 0 82 38.5t31 121.5zM463 1411q377 0 377 -403q0 -188 -118.5 -303t-297.5 -115q-255 0 -314 144.5t-59 250.5q0 202 119.5 314t292.5 112z" />
    <glyph glyph-name="guillemotright" unicode="&#xbb;" horiz-adv-x="1167" 
d="M78 215l168 303l-174 297l297 127l229 -424l-236 -428zM612 195l154 323l-160 318l307 122l205 -440l-211 -444z" />
    <glyph glyph-name="questiondown" unicode="&#xbf;" horiz-adv-x="909" 
d="M171 253q114 91 169.5 152t24.5 168h364q79 -216 -23 -306.5t-143 -123t-69.5 -64.5t-28.5 -69q0 -78 99.5 -120t287.5 -42l-45 -337q-384 7 -567 140t-183 322t114 280zM754 840q0 -43 -16.5 -81t-45 -65.5t-67.5 -43t-84 -15.5t-84 15.5t-68 43t-45 65.5t-16 81
t16 79.5t45 64.5t68 44t84 16t84 -16t67.5 -44t45 -64.5t16.5 -79.5z" />
    <glyph glyph-name="Agrave" unicode="&#xc0;" horiz-adv-x="1445" 
d="M809 639l-43 131q-47 139 -64 240h-4q-22 -132 -67 -262l-35 -109h213zM604 0h-584v248q47 12 89 16l364 1118h481l383 -1118q43 -4 88 -16v-248h-620v246q29 4 61 9t62 9l-27 80h-395l-25 -80l123 -18v-246zM958 1663l-116 -219l-473 182l137 260z" />
    <glyph glyph-name="Aacute" unicode="&#xc1;" horiz-adv-x="1445" 
d="M809 639l-43 131q-47 139 -64 240h-4q-22 -132 -67 -262l-35 -109h213zM604 0h-584v248q47 12 89 16l364 1118h481l383 -1118q43 -4 88 -16v-248h-620v246q29 4 61 9t62 9l-27 80h-395l-25 -80l123 -18v-246zM1069 1628l-473 -182l-113 215l453 223z" />
    <glyph glyph-name="Acircumflex" unicode="&#xc2;" horiz-adv-x="1445" 
d="M809 639l-43 131q-47 139 -64 240h-4q-22 -132 -67 -262l-35 -109h213zM604 0h-584v248q47 12 89 16l364 1118h481l383 -1118q43 -4 88 -16v-248h-620v246q29 4 61 9t62 9l-27 80h-395l-25 -80l123 -18v-246zM1067 1681l-96 -221l-254 117l-254 -117l-92 219l346 166z
" />
    <glyph glyph-name="Atilde" unicode="&#xc3;" horiz-adv-x="1445" 
d="M809 639l-43 131q-47 139 -64 240h-4q-22 -132 -67 -262l-35 -109h213zM604 0h-584v248q47 12 89 16l364 1118h481l383 -1118q43 -4 88 -16v-248h-620v246q29 4 61 9t62 9l-27 80h-395l-25 -80l123 -18v-246zM549 1833q83 0 174 -52q35 -19 70 -35t81 -17q46 0 88 19
t64 42l64 -246q-62 -55 -169 -84q-34 -8 -96 -8t-147 52q-33 20 -68 36t-96 16t-131 -65l-64 246q114 96 230 96z" />
    <glyph glyph-name="Adieresis" unicode="&#xc4;" horiz-adv-x="1445" 
d="M809 639l-43 131q-47 139 -64 240h-4q-22 -132 -67 -262l-35 -109h213zM604 0h-584v248q47 12 89 16l364 1118h481l383 -1118q43 -4 88 -16v-248h-620v246q29 4 61 9t62 9l-27 80h-395l-25 -80l123 -18v-246zM674 1638q0 -78 -54 -132t-132 -54t-133 54q-54 54 -54 132
t54 132t132 54q79 0 133 -54t54 -132zM1118 1638q0 -78 -54 -132t-132 -54t-132 54t-55 132q1 78 55 132t132 54t132 -54t54 -132z" />
    <glyph glyph-name="Aring" unicode="&#xc5;" horiz-adv-x="1445" 
d="M809 639l-43 131q-47 139 -64 240h-4q-22 -132 -67 -262l-35 -109h213zM1425 0h-620v246q29 4 61 9t62 9l-27 80h-395l-25 -80l123 -18v-246h-584v248q47 12 89 16l364 1118h32q-95 95 -94 213t89 200q88 81 211 81t215 -81q88 -82 88 -200q0 -119 -94 -213h34l383 -1118
q43 -4 88 -16v-248zM811 1591q0 41 -29 70q-30 29 -70 29t-69 -29t-29 -70t29 -69t70 -29q41 1 69 29t29 69z" />
    <glyph glyph-name="AE" unicode="&#xc6;" horiz-adv-x="1679" 
d="M774 639v442h-10q-90 -214 -137 -319l-56 -123h203zM1614 412v-412h-963v252l123 18v74h-340l-35 -80q28 -4 86 -18v-246h-546v248q48 13 88 16l413 848q-105 9 -178 25v245h1346v-393h-295q-12 80 -15 94h-145v-243h123l14 73h252v-413h-252l-14 73h-123v-268h147
l15 107h299z" />
    <glyph glyph-name="Ccedilla" unicode="&#xc7;" horiz-adv-x="1167" 
d="M778 1399q168 0 320 -33v-483h-303q-14 71 -23 153q-20 4 -59 4q-95 0 -163 -84q-69 -84 -70 -261t78 -270t269 -91q125 0 248 41l21 -355q-152 -41 -338 -42q-355 -2 -530 173t-175 484q0 364 192 564t533 200zM440 -393q188 109 78 289h332q74 -137 32 -240
q-53 -121 -264 -186z" />
    <glyph glyph-name="Egrave" unicode="&#xc8;" horiz-adv-x="1116" 
d="M1051 412v-412h-1020v246q80 16 178 24v842q-105 9 -178 25v245h1013v-393h-294q-9 62 -15 94h-145v-243h123l14 73h252v-413h-252l-14 73h-123v-268h147q10 79 15 107h299zM780 1663l-116 -219l-474 182l138 260z" />
    <glyph glyph-name="Eacute" unicode="&#xc9;" horiz-adv-x="1116" 
d="M1051 412v-412h-1020v246q80 16 178 24v842q-105 9 -178 25v245h1013v-393h-294q-9 62 -15 94h-145v-243h123l14 73h252v-413h-252l-14 73h-123v-268h147q10 79 15 107h299zM965 1628l-473 -182l-113 215l452 223z" />
    <glyph glyph-name="Ecircumflex" unicode="&#xca;" horiz-adv-x="1116" 
d="M1051 412v-412h-1020v246q80 16 178 24v842q-105 9 -178 25v245h1013v-393h-294q-9 62 -15 94h-145v-243h123l14 73h252v-413h-252l-14 73h-123v-268h147q10 79 15 107h299zM932 1681l-96 -221l-254 117l-254 -117l-92 219l346 166z" />
    <glyph glyph-name="Edieresis" unicode="&#xcb;" horiz-adv-x="1116" 
d="M1051 412v-412h-1020v246q80 16 178 24v842q-105 9 -178 25v245h1013v-393h-294q-9 62 -15 94h-145v-243h123l14 73h252v-413h-252l-14 73h-123v-268h147q10 79 15 107h299zM526 1638q0 -78 -54 -132t-132 -54t-132 54t-54 132t54 132t132 54t132 -54t54 -132zM971 1638
q-1 -78 -55 -132t-132 -54t-132 54t-54 132t54 132t132 54t132 -54t55 -132z" />
    <glyph glyph-name="Igrave" unicode="&#xcc;" horiz-adv-x="798" 
d="M758 0h-738v246q80 16 179 24v842q-106 9 -179 25v245h738v-245q-90 -17 -178 -25v-842q98 -8 178 -24v-246zM664 1663l-117 -219l-473 182l137 260z" />
    <glyph glyph-name="Iacute" unicode="&#xcd;" horiz-adv-x="798" 
d="M758 0h-738v246q80 16 179 24v842q-106 9 -179 25v245h738v-245q-90 -17 -178 -25v-842q98 -8 178 -24v-246zM686 1628l-473 -182l-113 215l453 223z" />
    <glyph glyph-name="Icircumflex" unicode="&#xce;" horiz-adv-x="798" 
d="M758 0h-738v246q80 16 179 24v842q-106 9 -179 25v245h738v-245q-90 -17 -178 -25v-842q98 -8 178 -24v-246zM741 1681l-96 -221l-254 117l-254 -117l-92 219l346 166z" />
    <glyph glyph-name="Idieresis" unicode="&#xcf;" horiz-adv-x="798" 
d="M758 0h-738v246q80 16 179 24v842q-106 9 -179 25v245h738v-245q-90 -17 -178 -25v-842q98 -8 178 -24v-246zM350 1638.5q0 -77.5 -54 -132t-132 -54.5t-132.5 54.5t-54.5 132t54.5 132t132.5 54.5t132 -54.5t54 -132zM795 1638.5q0 -77.5 -54.5 -132t-132.5 -54.5
t-132 54.5t-54 132t54 132t132 54.5t132.5 -54.5t54.5 -132z" />
    <glyph glyph-name="Ntilde" unicode="&#xd1;" horiz-adv-x="1583" 
d="M31 1382h665l252 -479q20 -41 38 -77l36 -72q16 -36 32 -71q16 -36 36 -77q-14 127 -14 253t-1 253q-59 6 -110 18v252h587v-252q-53 -12 -110 -18v-1112h-484l-256 477q-60 115 -137 311q11 -129 11 -259t-1 -259q113 -16 125 -18v-252h-669v246q80 16 178 24v842
q-105 9 -178 25v245zM682 1833q83 0 174 -52q35 -19 70 -35t81 -17q46 0 88 19t64 42l64 -246q-62 -55 -169 -84q-34 -8 -96 -8t-147 52q-33 20 -68 36t-94 16t-133 -65l-63 246q114 96 229 96z" />
    <glyph glyph-name="Ograve" unicode="&#xd2;" horiz-adv-x="1435" 
d="M987 696q0 367 -270 367q-109 0 -189 -91q-81 -91 -80 -271q1 -179 61 -279t200 -100q180 0 252 192q26 71 26 182zM1192 178q-201 -205 -512 -206q-310 -1 -473 182q-164 183 -164 515q0 333 206 539q95 96 223 150t268 53q140 0 258 -38t206 -122q189 -180 189 -525
q0 -343 -201 -548zM983 1663l-117 -219l-473 182l137 260z" />
    <glyph glyph-name="Oacute" unicode="&#xd3;" horiz-adv-x="1435" 
d="M987 696q0 367 -270 367q-109 0 -189 -91q-81 -91 -80 -271q1 -179 61 -279t200 -100q180 0 252 192q26 71 26 182zM1192 178q-201 -205 -512 -206q-310 -1 -473 182q-164 183 -164 515q0 333 206 539q95 96 223 150t268 53q140 0 258 -38t206 -122q189 -180 189 -525
q0 -343 -201 -548zM1108 1628l-473 -182l-113 215l453 223z" />
    <glyph glyph-name="Ocircumflex" unicode="&#xd4;" horiz-adv-x="1435" 
d="M987 696q0 367 -270 367q-109 0 -189 -91q-81 -91 -80 -271q1 -179 61 -279t200 -100q180 0 252 192q26 71 26 182zM1192 178q-201 -205 -512 -206q-310 -1 -473 182q-164 183 -164 515q0 333 206 539q95 96 223 150t268 53q140 0 258 -38t206 -122q189 -180 189 -525
q0 -343 -201 -548zM1090 1681l-97 -221l-254 117l-254 -117l-92 219l346 166z" />
    <glyph glyph-name="Otilde" unicode="&#xd5;" horiz-adv-x="1435" 
d="M987 696q0 367 -270 367q-109 0 -189 -91q-81 -91 -80 -271q1 -179 61 -279t200 -100q180 0 252 192q26 71 26 182zM1192 178q-201 -205 -512 -206q-310 -1 -473 182q-164 183 -164 515q0 333 206 539q95 96 223 150t268 53q140 0 258 -38t206 -122q189 -180 189 -525
q0 -343 -201 -548zM900 1739q46 0 88 19t65 42l63 -246q-28 -24 -99 -58q-72 -34 -148 -34t-164 52q-33 20 -68 36q-115 54 -227 -49l-64 246q116 98 229 96q84 0 175 -52q36 -19 70 -35t80 -17z" />
    <glyph glyph-name="Odieresis" unicode="&#xd6;" horiz-adv-x="1435" 
d="M987 696q0 367 -270 367q-109 0 -189 -91q-81 -91 -80 -271q1 -179 61 -279t200 -100q180 0 252 192q26 71 26 182zM1192 178q-201 -205 -512 -206q-310 -1 -473 182q-164 183 -164 515q0 333 206 539q95 96 223 150t268 53q140 0 258 -38t206 -122q189 -180 189 -525
q0 -343 -201 -548zM715 1638q-1 -78 -55 -132t-132 -54t-132 54t-54 132t54 132t132 54t132 -54t55 -132zM1159 1638q0 -78 -54 -132t-132 -54t-132 54t-55 132q0 78 54 132t133 54q78 0 132 -54t54 -132z" />
    <glyph glyph-name="Oslash" unicode="&#xd8;" horiz-adv-x="1423" 
d="M424 725q0 -121 9 -183.5t40 -105.5l209 629q-131 -12 -194.5 -115.5t-63.5 -224.5zM999 700q0 184 -55 261l-217 -656q64 0 168 65t104 330zM1380 702q0 -323 -198.5 -527t-487.5 -204h-41q-18 0 -37 2l-63 -192l-272 82l63 188q-301 160 -301 621q0 338 192.5 538.5
t497.5 200.5h23q22 0 39 -2l61 186l270 -82l-57 -176q311 -155 311 -635z" />
    <glyph glyph-name="Ugrave" unicode="&#xd9;" horiz-adv-x="1441" 
d="M803 1382h608v-252q-53 -12 -106 -18v-573q0 -568 -600 -568q-451 0 -538 322q-26 96 -26 207v612q-59 6 -110 18v252h616v-252q-14 -3 -125 -18v-594q0 -111 42 -169t159 -58t161 54t44 183v584q-113 16 -125 18v252zM907 1663l-116 -219l-474 182l138 260z" />
    <glyph glyph-name="Uacute" unicode="&#xda;" horiz-adv-x="1441" 
d="M803 1382h608v-252q-53 -12 -106 -18v-573q0 -568 -600 -568q-451 0 -538 322q-26 96 -26 207v612q-59 6 -110 18v252h616v-252q-14 -3 -125 -18v-594q0 -111 42 -169t159 -58t161 54t44 183v584q-113 16 -125 18v252zM1118 1628l-473 -182l-113 215l453 223z" />
    <glyph glyph-name="Ucircumflex" unicode="&#xdb;" horiz-adv-x="1441" 
d="M803 1382h608v-252q-53 -12 -106 -18v-573q0 -568 -600 -568q-451 0 -538 322q-26 96 -26 207v612q-59 6 -110 18v252h616v-252q-14 -3 -125 -18v-594q0 -111 42 -169t159 -58t161 54t44 183v584q-113 16 -125 18v252zM1059 1681l-96 -221l-254 117l-254 -117l-93 219
l347 166z" />
    <glyph glyph-name="Udieresis" unicode="&#xdc;" horiz-adv-x="1441" 
d="M803 1382h608v-252q-53 -12 -106 -18v-573q0 -568 -600 -568q-451 0 -538 322q-26 96 -26 207v612q-59 6 -110 18v252h616v-252q-14 -3 -125 -18v-594q0 -111 42 -169t159 -58t161 54t44 183v584q-113 16 -125 18v252zM674 1638q0 -78 -54 -132t-132 -54t-133 54
q-54 54 -54 132t54 132t132 54q79 0 133 -54t54 -132zM1118 1638q0 -78 -54 -132t-132 -54t-132 54t-55 132q1 78 55 132t132 54t132 -54t54 -132z" />
    <glyph glyph-name="germandbls" unicode="&#xdf;" horiz-adv-x="1533" 
d="M219 1016q4 246 155 365.5t402 119.5q252 0 382 -98.5t130 -224t-25.5 -171.5t-56 -78t-56.5 -59.5t-26 -63.5t29 -58.5t73 -46t168 -90.5t124 -265q0 -155 -118 -256.5t-335 -101.5q-148 0 -293 22v338h246q10 -58 10 -86q23 -8 51 -8q59 0 60 57q0 29 -30 50.5t-74 42
t-96 45t-126 88.5t-74 200q0 70 24.5 114t53.5 80t53.5 72.5t24.5 72.5q0 62 -31 95t-105 33q-75 0 -121 -52t-46 -179v-703q89 -10 129 -24v-246h-680v246q80 16 178 24v467q-71 11 -178 21v243q43 4 87 8.5t91 6.5z" />
    <glyph glyph-name="agrave" unicode="&#xe0;" horiz-adv-x="1171" 
d="M606 385v33q-102 0 -137 -14q-65 -26 -67 -84q-1 -69 75 -68q57 0 93 40t36 93zM354 -25q-154 0 -228 83q-74 84 -75 198q0 114 45 185q125 197 510 204v37q0 47 -28 66q-29 18 -90 18t-103 -10q-3 -23 -14 -86h-240v325q200 52 353 53q406 2 477 -213q23 -71 22 -165
v-389q61 -10 158 -21v-246q-231 -25 -498 -16q0 84 8 131h-2q-37 -72 -117 -113t-178 -41zM819 1335l-117 -219l-473 182l138 261z" />
    <glyph glyph-name="aacute" unicode="&#xe1;" horiz-adv-x="1171" 
d="M606 385v33q-102 0 -137 -14q-65 -26 -67 -84q-1 -69 75 -68q57 0 93 40t36 93zM354 -25q-154 0 -228 83q-74 84 -75 198q0 114 45 185q125 197 510 204v37q0 47 -28 66q-29 18 -90 18t-103 -10q-3 -23 -14 -86h-240v325q200 52 353 53q406 2 477 -213q23 -71 22 -165
v-389q61 -10 158 -21v-246q-231 -25 -498 -16q0 84 8 131h-2q-37 -72 -117 -113t-178 -41zM897 1300l-473 -182l-113 215l453 223z" />
    <glyph glyph-name="acircumflex" unicode="&#xe2;" horiz-adv-x="1171" 
d="M606 385v33q-102 0 -137 -14q-65 -26 -67 -84q-1 -69 75 -68q57 0 93 40t36 93zM354 -25q-154 0 -228 83q-74 84 -75 198q0 114 45 185q125 197 510 204v37q0 47 -28 66q-29 18 -90 18t-103 -10q-3 -23 -14 -86h-240v325q200 52 353 53q406 2 477 -213q23 -71 22 -165
v-389q61 -10 158 -21v-246q-231 -25 -498 -16q0 84 8 131h-2q-37 -72 -117 -113t-178 -41zM901 1354l-96 -221l-254 116l-254 -116l-92 219l346 166z" />
    <glyph glyph-name="atilde" unicode="&#xe3;" horiz-adv-x="1171" 
d="M606 385v33q-102 0 -137 -14q-65 -26 -67 -84q-1 -69 75 -68q57 0 93 40t36 93zM354 -25q-154 0 -228 83q-74 84 -75 198q0 114 45 185q125 197 510 204v37q0 47 -28 66q-29 18 -90 18t-103 -10q-3 -23 -14 -86h-240v325q200 52 353 53q406 2 477 -213q23 -71 22 -165
v-389q61 -10 158 -21v-246q-231 -25 -498 -16q0 84 8 131h-2q-37 -72 -117 -113t-178 -41zM716 1401q46 0 88 19t64 42l64 -245q-32 -28 -100 -59t-133 -33q-65 -1 -105 15t-74 36t-68 36t-93 16t-134 -65l-63 246q116 98 229 96q83 0 174 -52q35 -19 70 -35t81 -17z" />
    <glyph glyph-name="adieresis" unicode="&#xe4;" horiz-adv-x="1171" 
d="M606 385v33q-102 0 -137 -14q-65 -26 -67 -84q-1 -69 75 -68q57 0 93 40t36 93zM354 -25q-154 0 -228 83q-74 84 -75 198q0 114 45 185q125 197 510 204v37q0 47 -28 66q-29 18 -90 18t-103 -10q-3 -23 -14 -86h-240v325q200 52 353 53q406 2 477 -213q23 -71 22 -165
v-389q61 -10 158 -21v-246q-231 -25 -498 -16q0 84 8 131h-2q-37 -72 -117 -113t-178 -41zM512 1311q0 -78 -54 -132q-54 -55 -132 -55t-132 54t-55 133q1 78 55 132t132 54t132 -54t54 -132zM956 1311q0 -78 -54 -132q-54 -55 -132 -55t-132 54t-54 133q0 78 54 132t132 54
t132 -54t54 -132z" />
    <glyph glyph-name="aring" unicode="&#xe5;" horiz-adv-x="1171" 
d="M606 385v33q-102 0 -137 -14q-65 -26 -67 -84q-1 -69 75 -68q57 0 93 40t36 93zM354 -25q-154 0 -228 83q-74 84 -75 198q0 114 45 185q125 197 510 204v37q0 47 -28 66q-29 18 -90 18t-103 -10q-3 -23 -14 -86h-240v325q200 52 353 53q406 2 477 -213q23 -71 22 -165
v-389q61 -10 158 -21v-246q-231 -25 -498 -16q0 84 8 131h-2q-37 -72 -117 -113t-178 -41zM635 1380q0 41 -29 70q-30 29 -70 29t-69 -29t-29 -70q0 -42 29 -70t70 -28t69 28t29 70zM838 1382q0 -121 -88 -205q-90 -83 -214 -82q-125 1 -213 83q-89 82 -88 203t90 204
q89 82 212 81t213 -82q88 -81 88 -202z" />
    <glyph glyph-name="ae" unicode="&#xe6;" horiz-adv-x="1619" 
d="M401 321q0 -69 86 -69q47 0 83 40t36 93v33q-101 0 -153 -20t-52 -77zM1094 774q-51 0 -85 -39t-38 -102h229q4 74 -25.5 107.5t-80.5 33.5zM1082 1044q141 0 227 -37.5t170 -136t84 -319.5q0 -78 -13 -160h-577q4 -53 56 -91t187 -38t277 64l33 -279q-179 -72 -393 -72
q-305 0 -435 172q-11 -21 -88.5 -96.5t-276.5 -75.5q-141 0 -211.5 83.5t-70.5 197.5q0 204 155 294.5t400 94.5v37q0 47 -28.5 65.5t-90.5 18.5t-102 -10q-3 -23 -14 -86h-240v325q207 54 365 54q228 0 344 -76h2q99 71 240 71z" />
    <glyph glyph-name="ccedilla" unicode="&#xe7;" horiz-adv-x="915" 
d="M49 477q0 242 132 393q150 170 437 170q116 0 232 -32v-373h-244q-10 64 -14 90q-6 2 -23 2q-53 0 -93 -52t-40 -165t54 -161t158 -48t183 33l23 -322q-130 -35 -271 -36t-241 34q-292 103 -293 467zM266 -393q188 109 78 289h332q74 -137 32 -240q-53 -121 -264 -186z
" />
    <glyph glyph-name="egrave" unicode="&#xe8;" horiz-adv-x="1073" 
d="M547 774q-51 0 -85 -39t-38 -102h229q5 73 -25 107t-81 34zM189 100q-140 125 -140 382t134 410q134 154 368 153t349 -137q116 -136 116 -357q0 -78 -12 -160h-578q4 -53 56 -91t190 -38t274 64l33 -279q-173 -70 -411 -71t-379 124zM821 1335l-116 -219l-474 182
l138 261z" />
    <glyph glyph-name="eacute" unicode="&#xe9;" horiz-adv-x="1073" 
d="M547 774q-51 0 -85 -39t-38 -102h229q5 73 -25 107t-81 34zM189 100q-140 125 -140 382t134 410q134 154 368 153t349 -137q116 -136 116 -357q0 -78 -12 -160h-578q4 -53 56 -91t190 -38t274 64l33 -279q-173 -70 -411 -71t-379 124zM915 1300l-473 -182l-112 215
l452 223z" />
    <glyph glyph-name="ecircumflex" unicode="&#xea;" horiz-adv-x="1073" 
d="M547 774q-51 0 -85 -39t-38 -102h229q5 73 -25 107t-81 34zM189 100q-140 125 -140 382t134 410q134 154 368 153t349 -137q116 -136 116 -357q0 -78 -12 -160h-578q4 -53 56 -91t190 -38t274 64l33 -279q-173 -70 -411 -71t-379 124zM897 1354l-96 -221l-254 116
l-254 -116l-92 219l346 166z" />
    <glyph glyph-name="edieresis" unicode="&#xeb;" horiz-adv-x="1073" 
d="M547 774q-51 0 -85 -39t-38 -102h229q5 73 -25 107t-81 34zM189 100q-140 125 -140 382t134 410q134 154 368 153t349 -137q116 -136 116 -357q0 -78 -12 -160h-578q4 -53 56 -91t190 -38t274 64l33 -279q-173 -70 -411 -71t-379 124zM522 1311q0 -78 -54 -132
q-54 -55 -132 -55t-132 54t-54 133q0 78 54 132t132 54t132 -54t54 -132zM967 1311q-1 -78 -55 -132q-54 -55 -132 -55t-132 54t-54 133q0 78 54 132t132 54t132 -54t55 -132z" />
    <glyph glyph-name="igrave" unicode="&#xec;" horiz-adv-x="780" 
d="M729 0h-709v246q80 16 179 24v467q-72 12 -179 21v243q254 27 551 19v-750q92 -9 158 -24v-246zM590 1335l-117 -219l-473 182l137 261z" />
    <glyph glyph-name="iacute" unicode="&#xed;" horiz-adv-x="780" 
d="M729 0h-709v246q80 16 179 24v467q-72 12 -179 21v243q254 27 551 19v-750q92 -9 158 -24v-246zM651 1300l-473 -182l-112 215l452 223z" />
    <glyph glyph-name="icircumflex" unicode="&#xee;" horiz-adv-x="780" 
d="M729 0h-709v246q80 16 179 24v467q-72 12 -179 21v243q254 27 551 19v-750q92 -9 158 -24v-246zM711 1354l-97 -221l-254 116l-254 -116l-92 219l346 166z" />
    <glyph glyph-name="idieresis" unicode="&#xef;" horiz-adv-x="780" 
d="M729 0h-709v246q80 16 179 24v467q-72 12 -179 21v243q254 27 551 19v-750q92 -9 158 -24v-246zM305 1311q0 -78 -54 -132.5t-132 -54.5t-132.5 54.5t-54.5 132.5t54.5 132t132.5 54t132 -54t54 -132zM750 1311q0 -78 -54.5 -132.5t-132.5 -54.5t-132 54.5t-54 132.5
t54 132t132 54t132.5 -54t54.5 -132z" />
    <glyph glyph-name="ntilde" unicode="&#xf1;" horiz-adv-x="1370" 
d="M1339 0h-530v643q0 86 -57 84q-63 0 -112 -72q-48 -72 -48 -159v-226q108 -14 129 -18v-252h-680v246q80 16 178 24v467q-71 11 -178 21v243q252 27 522 19q0 -80 -10 -137h2q47 67 128 113t181 46q173 0 245 -87q71 -87 73 -234v-451q91 -8 157 -24v-246zM831 1401
q46 0 88 19t64 42l64 -245q-29 -26 -98 -58q-69 -33 -135 -34t-106 15t-73 36q-87 51 -155 53q-68 1 -140 -66l-64 246q116 98 230 96q83 0 174 -52q35 -19 70 -35t81 -17z" />
    <glyph glyph-name="ograve" unicode="&#xf2;" horiz-adv-x="1155" 
d="M721 518q0 206 -128 205q-67 0 -113 -47t-46 -161t32 -165t106 -51q74 -1 111 57q38 58 38 162zM47 479q0 253 158 409t405 155q246 -1 372 -134t126 -379t-159 -400q-159 -155 -396 -155q-506 0 -506 504zM846 1335l-117 -219l-473 182l137 261z" />
    <glyph glyph-name="oacute" unicode="&#xf3;" horiz-adv-x="1155" 
d="M721 518q0 206 -128 205q-67 0 -113 -47t-46 -161t32 -165t106 -51q74 -1 111 57q38 58 38 162zM47 479q0 253 158 409t405 155q246 -1 372 -134t126 -379t-159 -400q-159 -155 -396 -155q-506 0 -506 504zM940 1300l-473 -182l-113 215l453 223z" />
    <glyph glyph-name="ocircumflex" unicode="&#xf4;" horiz-adv-x="1155" 
d="M721 518q0 206 -128 205q-67 0 -113 -47t-46 -161t32 -165t106 -51q74 -1 111 57q38 58 38 162zM47 479q0 253 158 409t405 155q246 -1 372 -134t126 -379t-159 -400q-159 -155 -396 -155q-506 0 -506 504zM944 1354l-96 -221l-254 116l-254 -116l-92 219l346 166z" />
    <glyph glyph-name="otilde" unicode="&#xf5;" horiz-adv-x="1155" 
d="M721 518q0 206 -128 205q-67 0 -113 -47t-46 -161t32 -165t106 -51q74 -1 111 57q38 58 38 162zM47 479q0 253 158 409t405 155q246 -1 372 -134t126 -379t-159 -400q-159 -155 -396 -155q-506 0 -506 504zM769 1401q46 0 88 19t65 42l63 -245q-30 -27 -98 -59t-134 -33
q-65 -1 -106 15t-74 36q-87 51 -154 53q-67 1 -140 -66l-64 246q116 98 229 96q86 0 174 -52q35 -19 70 -35t81 -17z" />
    <glyph glyph-name="odieresis" unicode="&#xf6;" horiz-adv-x="1155" 
d="M721 518q0 206 -128 205q-67 0 -113 -47t-46 -161t32 -165t106 -51q74 -1 111 57q38 58 38 162zM47 479q0 253 158 409t405 155q246 -1 372 -134t126 -379t-159 -400q-159 -155 -396 -155q-506 0 -506 504zM563 1311q0 -78 -54 -132q-54 -55 -132 -55t-132 54t-55 133
q0 78 54 132t133 54q78 0 132 -54t54 -132zM1008 1311q0 -78 -54 -132q-54 -55 -133 -55q-78 0 -132 54t-54 133q0 78 54 132t132 54q79 0 133 -54t54 -132z" />
    <glyph glyph-name="divide" unicode="&#xf7;" horiz-adv-x="1290" 
d="M858 119q0 -43 -16.5 -82t-46 -68.5t-68.5 -46t-82 -16.5t-82 16.5t-68.5 46t-46 68.5t-16.5 82t16.5 82t46 68.5t68.5 46t82 16.5t82 -16.5t68.5 -46t46 -68.5t16.5 -82zM1188 373h-1086v311h1086v-311zM858 938q0 -43 -16.5 -82t-46 -68.5t-68.5 -46t-82 -16.5
t-82 16.5t-68.5 46t-46 68.5t-16.5 82t16.5 82t46 68.5t68.5 46t82 16.5t82 -16.5t68.5 -46t46 -68.5t16.5 -82z" />
    <glyph glyph-name="oslash" unicode="&#xf8;" horiz-adv-x="1138" 
d="M389 516q0 -90 23 -137l143 364q-80 0 -123 -68.5t-43 -158.5zM752 506q0 97 -17 145l-147 -377l37 7q55 16 91 72t36 153zM1092 528q0 -249 -154 -403t-389 -154q-44 0 -76 4l-78 -200l-198 59l75 195q-225 117 -225 460q0 261 154.5 409.5t390.5 148.5q32 0 80 -5
l71 189l199 -60l-72 -182q222 -118 222 -461z" />
    <glyph glyph-name="ugrave" unicode="&#xf9;" horiz-adv-x="1339" 
d="M561 375q0 -86 57 -84q63 0 112 72q48 72 48 159v217q-95 13 -129 17v250q218 22 502 14v-739q61 -10 158 -21v-246q-231 -25 -498 -16q0 63 8 137h-4q-47 -67 -128 -113t-181 -46q-175 -1 -246 87q-70 88 -72 234v440q-64 10 -157 21v246q227 24 530 16v-645zM860 1335
l-117 -219l-473 182l138 261z" />
    <glyph glyph-name="uacute" unicode="&#xfa;" horiz-adv-x="1339" 
d="M561 375q0 -86 57 -84q63 0 112 72q48 72 48 159v217q-95 13 -129 17v250q218 22 502 14v-739q61 -10 158 -21v-246q-231 -25 -498 -16q0 63 8 137h-4q-47 -67 -128 -113t-181 -46q-175 -1 -246 87q-70 88 -72 234v440q-64 10 -157 21v246q227 24 530 16v-645zM1028 1300
l-473 -182l-113 215l453 223z" />
    <glyph glyph-name="ucircumflex" unicode="&#xfb;" horiz-adv-x="1339" 
d="M561 375q0 -86 57 -84q63 0 112 72q48 72 48 159v217q-95 13 -129 17v250q218 22 502 14v-739q61 -10 158 -21v-246q-231 -25 -498 -16q0 63 8 137h-4q-47 -67 -128 -113t-181 -46q-175 -1 -246 87q-70 88 -72 234v440q-64 10 -157 21v246q227 24 530 16v-645zM1001 1354
l-96 -221l-254 116l-254 -116l-92 219l346 166z" />
    <glyph glyph-name="udieresis" unicode="&#xfc;" horiz-adv-x="1339" 
d="M561 375q0 -86 57 -84q63 0 112 72q48 72 48 159v217q-95 13 -129 17v250q218 22 502 14v-739q61 -10 158 -21v-246q-231 -25 -498 -16q0 63 8 137h-4q-47 -67 -128 -113t-181 -46q-175 -1 -246 87q-70 88 -72 234v440q-64 10 -157 21v246q227 24 530 16v-645zM612 1311
q0 -78 -54 -132q-54 -55 -132 -55t-132 54t-54 133q0 78 54 132t132 54t132 -54t54 -132zM1057 1311q-1 -78 -55 -132q-54 -55 -132 -55t-132 54t-54 133q0 78 54 132t132 54t132 -54t55 -132z" />
    <glyph glyph-name="ydieresis" unicode="&#xff;" horiz-adv-x="1173" 
d="M278 -188q124 0 156 112l23 76h-115l-240 754q-52 5 -82 12v252h525v-252q-2 -1 -58 -8l27 -76q41 -114 82 -297h4q38 186 74 297l22 76l-57 8v252h514v-252q-41 -10 -82 -12l-270 -854q-103 -324 -331 -379q-75 -19 -174 -19t-177 21l16 315q87 -26 143 -26zM524 1311
q0 -78 -54 -132q-54 -55 -132 -55t-132 54t-54 133q0 78 54 132t132 54t132 -54t54 -132zM969 1311q-1 -78 -55 -132q-54 -55 -132 -55t-132 54t-54 133q0 78 54 132t132 54t132 -54t55 -132z" />
    <glyph glyph-name="dotlessi" unicode="&#x131;" horiz-adv-x="780" 
d="M750 0h-709v246q80 16 178 24v467q-71 11 -178 21v243q254 27 551 19v-750q92 -9 158 -24v-246z" />
    <glyph glyph-name="OE" unicode="&#x152;" horiz-adv-x="1683" 
d="M702 322q50 0 74 8v719q-36 6 -82 6q-106 0 -180 -96t-74 -275t70 -270.5t192 -91.5zM1618 412v-412h-610q-80 0 -170 -11.5t-166 -11.5q-302 0 -464.5 185t-162.5 509t191.5 526t470.5 202q78 0 144.5 -8.5t137.5 -8.5h623v-393h-295q-14 92 -14 94h-146v-243h123l14 73
h252v-413h-252l-14 73h-123v-268h148q11 85 14 107h299z" />
    <glyph glyph-name="oe" unicode="&#x153;" horiz-adv-x="1722" 
d="M557 289q156 1 156 229q0 110 -33 161.5t-115 51.5q-106 0 -130.5 -81t-24.5 -170t31.5 -140t115.5 -51zM1196 774q-51 0 -85 -39t-38 -102h230q4 74 -26 107.5t-81 33.5zM1206 1044q226 0 342.5 -135t116.5 -358q0 -78 -12 -160h-578q4 -53 56.5 -91t187.5 -38t276 64
l33 -279q-179 -72 -406 -72t-358 107q-53 -47 -139.5 -77t-192.5 -30q-228 0 -356.5 120.5t-128.5 387.5t154.5 413t372.5 146t331 -90q121 92 301 92z" />
    <glyph glyph-name="Ydieresis" unicode="&#x178;" horiz-adv-x="1302" 
d="M1018 0h-737v246q80 16 178 24v174l-355 674q-54 6 -84 12v252h588v-252q-41 -10 -80 -12l68 -145q16 -35 32 -71t29 -73h7q44 108 63 142l74 147q-43 2 -84 12v252h565v-252q-41 -10 -84 -12l-358 -672v-176q98 -8 178 -24v-246zM578 1638q0 -78 -54 -132t-133 -54
q-78 0 -132 54t-54 132t54 132t132 54q79 0 133 -54t54 -132zM1022 1638q0 -78 -54 -132t-132 -54t-133 54q-54 54 -54 132t54 132q55 54 133 54t132 -54t54 -132z" />
    <glyph glyph-name="florin" unicode="&#x192;" horiz-adv-x="866" 
d="M692 1522q88 0 156 -13l-23 -305q-41 10 -87 10t-71.5 -35.5t-33.5 -142.5l-10 -137h153v-287h-174l-35 -460q-24 -337 -128.5 -464.5t-336.5 -127.5q-53 0 -131 12l23 311q41 -10 94 -10t72.5 50t27.5 155l41 534h-120v287h143l10 119q30 385 186 444.5t244 59.5z" />
    <glyph glyph-name="circumflex" unicode="&#x2c6;" horiz-adv-x="851" 
d="M776 1354l-96 -221l-254 116l-254 -116l-92 219l346 166z" />
    <glyph glyph-name="caron" unicode="&#x2c7;" horiz-adv-x="851" 
d="M776 1286l-346 -166l-350 164l96 221l254 -116l254 116z" />
    <glyph glyph-name="breve" unicode="&#x2d8;" horiz-adv-x="681" 
d="M338 1397q74 0 74 98h241q0 -250 -116.5 -309.5t-201.5 -59.5q-159 0 -234.5 104t-75.5 265h239q0 -98 74 -98z" />
    <glyph glyph-name="dotaccent" unicode="&#x2d9;" horiz-adv-x="598" 
d="M516 1316.5q0 -63.5 -64 -126t-153 -62.5t-153 62.5t-64 146t62.5 147.5t176 64t154.5 -84t41 -147.5z" />
    <glyph glyph-name="ring" unicode="&#x2da;" horiz-adv-x="696" 
d="M446 1300.5q0 40.5 -28.5 69.5t-69.5 29t-69.5 -29t-28.5 -69.5t28.5 -69.5t69.5 -29t69.5 29t28.5 69.5zM649 1300.5q0 -61.5 -23.5 -113.5t-64.5 -90t-96 -59.5t-116.5 -21.5t-117 21.5t-96.5 59.5t-64.5 90t-23.5 113.5t23.5 113.5t64.5 90t96.5 59.5t117 21.5
t116.5 -21.5t96 -59.5t64.5 -90t23.5 -113.5z" />
    <glyph glyph-name="ogonek" unicode="&#x2db;" 
d="M397 -207q0 -47 34 -59.5t116 10.5v-213q-104 -33 -229 -33q-234 0 -234 226q0 133 84 276h283q-54 -114 -54 -207z" />
    <glyph glyph-name="tilde" unicode="&#x2dc;" horiz-adv-x="870" 
d="M291 1505q82 0 145.5 -35.5t98.5 -52t81 -16.5t87.5 19.5t64.5 41.5l63 -245q-66 -58 -133.5 -75.5t-115.5 -17.5t-88.5 16.5t-73.5 36t-68 36t-95 16.5t-132 -66l-64 246q114 96 230 96z" />
    <glyph glyph-name="hungarumlaut" unicode="&#x2dd;" horiz-adv-x="1146" 
d="M598 1468l-365 -352l-188 156l332 381zM1124 1341l-454 -225l-133 205l430 264z" />
    <glyph glyph-name="Delta" unicode="&#x394;" horiz-adv-x="1605" 
d="M1016 344l-228 580l-229 -580h457zM1571 0h-1536l592 1434h356z" />
    <glyph glyph-name="Omega" unicode="&#x3a9;" horiz-adv-x="1533" 
d="M315 279q-202 153 -202 446t185 489.5t476 196.5q292 0 468.5 -174.5t176.5 -482.5q0 -224 -84 -331.5t-135 -143.5h225v-279h-598v252q102 57 158.5 182t56.5 291t-74 272.5t-203.5 106.5t-208.5 -105t-79 -279q0 -173 54.5 -285.5t166.5 -180.5v-254h-596v279h213z" />
    <glyph glyph-name="pi" unicode="&#x3c0;" horiz-adv-x="1359" 
d="M766 229v484h-178v-713h-342v713h-168v305h1194v-305h-164v-322q0 -101 15.5 -123t30.5 -27t48 -5t70 10l22 -246q-128 -29 -260 -29q-268 0 -268 258z" />
    <glyph glyph-name="endash" unicode="&#x2013;" horiz-adv-x="1024" 
d="M1024 428h-1024v328h1024v-328z" />
    <glyph glyph-name="emdash" unicode="&#x2014;" horiz-adv-x="2048" 
d="M2048 428h-2048v328h2048v-328z" />
    <glyph glyph-name="quoteleft" unicode="&#x2018;" 
d="M314 745q-70 0 -121.5 33t-98 128t22 287t286.5 372l150 -133q-114 -122 -129 -196.5t51 -148.5q39 -43 46 -102t-14.5 -112.5t-72 -90.5t-120.5 -37z" />
    <glyph glyph-name="quoteright" unicode="&#x2019;" 
d="M300 1542q70 0 121.5 -32.5t98.5 -129t-22.5 -287.5t-286.5 -370l-150 133q114 122 129.5 195.5t-51.5 148.5q-39 43 -46 102.5t14.5 112.5t72 90t120.5 37z" />
    <glyph glyph-name="quotesinglbase" unicode="&#x201a;" 
d="M300 410q70 0 121.5 -33t98.5 -129t-22.5 -287.5t-286.5 -370.5l-150 134q114 122 129.5 195.5t-51.5 148.5q-39 43 -46 102t14.5 112.5t72 90.5t120.5 37z" />
    <glyph glyph-name="quotedblleft" unicode="&#x201c;" horiz-adv-x="1146" 
d="M314 745q-70 0 -121.5 33t-98 128t21 284.5t287.5 374.5l150 -133q-114 -122 -129 -196.5t51 -148.5q39 -43 46 -102t-14.5 -112.5t-72 -90.5t-120.5 -37zM846 745q-69 0 -120.5 33t-98.5 128t22 286t287 373l149 -133q-112 -120 -128 -195t51 -150q39 -43 46 -102
t-14.5 -112.5t-73 -90.5t-120.5 -37z" />
    <glyph glyph-name="quotedblright" unicode="&#x201d;" horiz-adv-x="1146" 
d="M832 1542q70 0 122 -32.5t98.5 -128t-22 -286.5t-287.5 -372l-149 133q114 122 129 196t-51 148q-39 43 -46.5 102.5t14.5 112.5t72 90t120 37zM300 1542q70 0 121.5 -32.5t98.5 -129t-22.5 -287.5t-286.5 -370l-150 133q114 122 129.5 195.5t-51.5 148.5
q-39 43 -46 102.5t14.5 112.5t72 90t120.5 37z" />
    <glyph glyph-name="quotedblbase" unicode="&#x201e;" horiz-adv-x="1146" 
d="M832 410q70 0 122 -33t98.5 -128t-21.5 -286.5t-288 -372.5l-149 134q115 123 129.5 196.5t-51.5 147.5q-39 43 -46.5 102t14.5 112.5t72 90.5t120 37zM300 410q70 0 121.5 -33t98.5 -129t-22.5 -287.5t-286.5 -370.5l-150 134q114 122 129.5 195.5t-51.5 148.5
q-39 43 -46 102t14.5 112.5t72 90.5t120.5 37z" />
    <glyph glyph-name="dagger" unicode="&#x2020;" horiz-adv-x="1003" 
d="M938 844h-285l66 -240l-66 -622h-301l-67 622l65 240h-284v286h284l-65 365h434l-66 -365h285v-286z" />
    <glyph glyph-name="daggerdbl" unicode="&#x2021;" horiz-adv-x="1003" 
d="M934 324h-277l66 -324h-442l65 324h-280v286h280l-61 138l61 137h-280v286h280l-61 324h434l-62 -324h281v-286h-281l62 -137l-62 -138h277v-286z" />
    <glyph glyph-name="bullet" unicode="&#x2022;" horiz-adv-x="872" 
d="M709 883q114 -114 113 -271q0 -158 -114 -272t-272 -113q-158 0 -272 113q-113 112 -113 272q1 160 113 272t272 113q160 0 273 -114z" />
    <glyph glyph-name="ellipsis" unicode="&#x2026;" horiz-adv-x="1734" 
d="M1586.5 353q68.5 -67 68.5 -159q0 -91 -67 -158t-160 -67t-158.5 66.5t-65.5 158.5q0 93 66.5 159.5t157.5 66.5q90 0 158.5 -67zM1025.5 353q68.5 -67 68.5 -159q0 -91 -67 -158t-160 -67t-158.5 66.5t-65.5 158.5q0 93 66.5 159.5t157.5 66.5q90 0 158.5 -67z
M464 353.5q68 -66.5 68 -159.5q0 -92 -66.5 -158.5t-159.5 -66.5t-158.5 66.5t-65.5 158.5q0 93 66.5 159.5t157.5 66.5q90 0 158 -66.5z" />
    <glyph glyph-name="perthousand" unicode="&#x2030;" horiz-adv-x="2410" 
d="M1477 1249l-1022 -1312l-271 196l1022 1313zM2009 430q-61 0 -61 -121q0 -78 17 -99.5t40 -21.5t41 28.5t18 99.5t-15 92.5t-40 21.5zM2355 327q0 -174 -104 -282t-260 -108t-246 98t-90 268t103.5 274.5t298 104.5t246.5 -132t52 -223zM1260 430q-60 0 -60 -121t55 -121
q25 0 43.5 28.5t18.5 99.5t-15.5 92.5t-41.5 21.5zM1608 327q0 -173 -104.5 -281.5t-261.5 -108.5t-246 98t-89 267t104 274.5t297.5 105.5t246.5 -132t53 -223zM348 1066q0 -114 40 -114t59.5 28.5t19.5 99.5t-15.5 92.5t-41.5 21.5t-44 -28.5t-18 -99.5zM756 1091
q0 -173 -105 -282t-260 -109q-156 0 -246 98.5t-90 267.5t104 274.5t297.5 105.5t246.5 -132t53 -223z" />
    <glyph glyph-name="guilsinglleft" unicode="&#x2039;" horiz-adv-x="636" 
d="M559 827l-162 -313l168 -307l-303 -127l-217 434l223 438z" />
    <glyph glyph-name="guilsinglright" unicode="&#x203a;" horiz-adv-x="636" 
d="M592 518l-223 -438l-291 125l162 313l-168 307l303 127z" />
    <glyph glyph-name="trademark" unicode="&#x2122;" horiz-adv-x="1835" 
d="M35 1087v295h682v-295h-166q-8 49 -12 93h-39v-279q49 -2 100 -16v-158h-450v158q51 14 100 16v279h-39q-4 -44 -12 -93h-164zM1800 727h-364v158q19 8 43 12l-23 102l-10 48l-76 -320h-240l-67 274l-8 46l-8 -43l-25 -107q23 -4 43 -12v-158h-348v162q36 8 61 8l80 309
q-46 7 -102 17v159h436l45 -192l14 -76l64 268h448v-159q-73 -13 -102 -17l80 -307q29 0 59 -6v-166z" />
    <glyph glyph-name="partialdiff" unicode="&#x2202;" horiz-adv-x="1980" 
d="M1370 272q77 0 121.5 60.5t44.5 183.5t-24.5 169t-76 46t-91 -58.5t-39.5 -176.5v-215q27 -9 65 -9zM743 0h-702v246q80 16 178 24v461h-178v287h178v29q0 243 147 357t500 114q199 0 439 -39v-340q0 -108 -15 -211h2q35 51 102.5 82.5t161.5 31.5q186 0 279.5 -130
t93.5 -345q0 -259 -150 -426.5t-402 -167.5q-253 0 -445 58v1175q-66 8 -154 8q-186 0 -186 -159v-37h156v-287h-156v-461q96 -12 151 -24v-246z" />
    <glyph glyph-name="product" unicode="&#x220f;" horiz-adv-x="1402" 
d="M651.5 1168.5q-59.5 -39.5 -59.5 -121.5v-29h713v-1041q0 -340 -166 -403t-271 -63t-174 20l19 313q64 -22 112 -22q107 0 107 112v797h-340v-461q96 -12 151 -24v-246h-702v246q80 16 178 24v461h-178v287h178v24q0 265 167.5 370.5t449.5 105.5q207 0 391 -41l-66 -308
q-171 39 -310 39q-140 0 -199.5 -39.5z" />
    <glyph glyph-name="summation" unicode="&#x2211;" horiz-adv-x="2082" 
d="M2052 0h-530v643q0 84 -59 84t-108.5 -72t-49.5 -161v-224q108 -14 129 -18v-252h-625v246q55 15 123 24v936q-58 8 -121 8q-123 0 -171 -45t-48 -122v-29h182v-287h-182v-461q68 -9 123 -24v-246h-674v246q80 16 178 24v461h-178v287h178v29q0 243 147 357t500 114
q199 0 439 -39v-357q0 -112 -19 -211h2q45 57 122 94t172 37q168 0 240 -88t72 -233v-451q101 -11 158 -24v-246z" />
    <glyph glyph-name="fraction" unicode="&#x2215;" horiz-adv-x="942" 
d="M1077 1446l-837 -1729l-316 136l840 1728z" />
    <glyph glyph-name="radical" unicode="&#x221a;" horiz-adv-x="1286" 
d="M10 741v277h477l121 -438q25 -88 31 -148h2q8 82 25 146l237 974h412l-467 -1552h-438l-236 741h-164z" />
    <glyph glyph-name="infinity" unicode="&#x221e;" horiz-adv-x="2043" 
d="M521 662q-62 0 -91 -32t-29 -73t31 -69.5t76 -28.5q88 0 221 94q-146 109 -208 109zM1517 459q68 0 96.5 31.5t28.5 73.5t-30.5 70t-79.5 28q-88 0 -225 -99q142 -104 210 -104zM1028 778q278 207 497 207t343.5 -114.5t124.5 -301.5t-128.5 -311.5t-353.5 -124.5
q-224 0 -501 201q-142 -99 -261.5 -150t-242.5 -51q-224 0 -339.5 116.5t-115.5 304.5t130 309.5t352 121.5q221 0 495 -207z" />
    <glyph glyph-name="integral" unicode="&#x222b;" horiz-adv-x="2091" 
d="M875 1518q189 0 430 -39v-916l143 193q-33 2 -59 10v252h639v-252q-49 -11 -121 -16l-185 -205l209 -275q59 -6 119 -18v-252h-399l-346 494v-224q57 -6 92 -18v-252h-588v246q55 15 123 24v936q-58 8 -121 8q-123 0 -171 -45t-48 -122v-29h182v-287h-182v-461
q68 -9 123 -24v-246h-674v246q80 16 178 24v461h-178v287h178v29q0 243 147 357t509 114z" />
    <glyph glyph-name="approxequal" unicode="&#x2248;" horiz-adv-x="1228" 
d="M1118 201q-155 -146 -338 -146q-79 0 -157 39t-118 57.5t-83 18.5q-96 0 -203 -88l-123 244q164 153 312 153q68 0 115.5 -18.5t89.5 -40t86 -38.5t106 -17q115 0 194 79zM797 526q-78 0 -156 39t-122 57.5t-97 18.5q-108 0 -209 -86l-117 242q70 66 160 109.5t165 43.5
t126 -18.5t94 -40t81 -38.5t75 -17q96 0 194 88l123 -244q-149 -154 -317 -154z" />
    <glyph glyph-name="notequal" unicode="&#x2260;" horiz-adv-x="1525" 
d="M771 1196q-79 0 -129 -29.5t-50 -111.5v-37h340v78q0 47 6 90q-88 10 -167 10zM1421 1214q-116 0 -116 -100v-96h182v-287h-182v-461q98 -8 178 -24v-246h-674v246q55 15 123 24v461h-340v-461q68 -9 123 -24v-246h-674v246q80 16 178 24v461h-178v287h178v24
q0 242 130 352.5t413 110.5q197 0 352 -35q113 48 233 48t203 -17l-22 -303q-53 16 -107 16z" />
    <glyph glyph-name="lessequal" unicode="&#x2264;" horiz-adv-x="2205" 
d="M784 1196q-97 0 -144.5 -29.5t-47.5 -111.5v-37h340v29q0 73 12 127q-63 22 -160 22zM2175 0h-653v246q55 15 123 24v461h-340v-461q69 -9 122 -24v-246h-618v246q55 15 123 24v461h-340v-461q68 -9 123 -24v-246h-674v246q80 16 178 24v461h-178v287h178v24
q0 242 130 352.5t413 110.5q220 0 420 -51q139 64 356 64t401 -41l-65 -308q-171 39 -276 39q-174 0 -233.5 -39.5t-59.5 -121.5v-29h712v-748q92 -9 158 -24v-246z" />
    <glyph glyph-name="greaterequal" unicode="&#x2265;" horiz-adv-x="2205" 
d="M784 1196q-97 0 -144.5 -29.5t-47.5 -111.5v-37h340v29q0 73 12 127q-63 22 -160 22zM2175 0h-653v246q55 15 123 24v936q-46 8 -145 8t-147 -45t-48 -122v-29h182v-287h-182v-461q69 -9 122 -24v-246h-618v246q55 15 123 24v461h-340v-461q68 -9 123 -24v-246h-674v246
q80 16 178 24v461h-178v287h178v24q0 242 130 352.5t413 110.5q220 0 420 -51q140 64 368 64q229 0 467 -39v-1209q92 -9 158 -24v-246z" />
    <glyph glyph-name="lozenge" unicode="&#x25ca;" horiz-adv-x="1302" 
d="M883 682l-242 313l-217 -297l233 -319zM1292 690l-522 -710h-233l-527 710l527 713h233z" />
    <glyph glyph-name="apple" unicode="&#xf8ff;" horiz-adv-x="4020" 
d="M2042 913q2 10 0 21h-2q2 -10 0 -21h2zM2036 922q0 4 -3 3t-3 1t6 2v2q-8 0 -8 -4t3 -3t3 -1t-6 -2v-2q8 0 8 4zM2021 922h-4h4zM2015 916q0 8 6 8q0 4 -6 2v2q8 4 8 -2v-8h-2v2q-6 -12 -6 -4zM2009 913h2q-2 10 0 21h-2q-2 -11 0 -21zM1999 923q0 -7 4 -3v-2q-6 -4 -7 5
t7 5v-2q-4 4 -4 -3zM1993 928v-8q0 -4 -4 -4.5t-4 4.5v8h2v-8q0 -2 2 -2t2 2v8h2zM1980 918v2h-4v12h-2v-14h6zM2359 -358l-26 59l-678 -174l59 -145h588l25 59l-7 14l-190 -47l-57 160zM2357 -94l-24 59l-682 -174l26 -59zM2361 193h-710v-111l37 -84l673 172v23zM1974 809
q-34 0 -63 -4l41 -387h114l37 387q-27 4 -35 4h-94zM1561 991q230 68 449 68q220 0 452 -68q20 -6 29.5 -50t6 -93t-19.5 -86t-40 -28q-55 20 -132 38l-39 -354h111q86 74 139 182.5t53 232.5t-44 225t-120.5 178t-178 121t-275.5 44t-339 -165t-165 -396q0 -129 53 -238.5
t139 -183.5h111l-43 354q-50 -11 -123 -39q-27 -10 -42 27t-19 86t5 94t32 51zM1163 840q0 174 66.5 328.5t181.5 269t268.5 181.5t328.5 67t329.5 -67t269.5 -181.5t181.5 -269t66.5 -316.5q0 -322 -195 -555v-254l-49 -12l101 -238l-99 -26l99 -232l-107 -27l29 -69
l-101 -238h-198q-14 -70 -104.5 -116t-190.5 -46q-164 0 -253.5 47t-103.5 115h-198l-185 439l99 26l-101 238l109 28l-55 131v244q-189 232 -189 533zM3043 715q19 126 0 252l543 65q20 -195 2 -385zM2830 1481q-80 102 -180 176l336 432q158 -126 270 -272zM2138 1868
q-119 16 -252 -2l-69 549q159 24 385 0zM1376 1653q-90 -73 -176 -178l-442 346q129 160 272 270zM983 839q0 -69 8 -126l-557 -68q-27 203 0 389l557 -67q-8 -59 -8 -128z" />
    <glyph glyph-name="fi" unicode="&#xfb01;" horiz-adv-x="1492" 
d="M1462 0h-653v246q55 15 123 24v461h-340v-461q68 -9 123 -24v-246h-674v246q80 16 178 24v461h-178v287h178v24q0 265 167.5 370.5t449.5 105.5q207 0 391 -41l-66 -308q-171 39 -276 39q-174 0 -233.5 -39.5t-59.5 -121.5v-29h713v-748q91 -9 157 -24v-246z" />
    <glyph glyph-name="fl" unicode="&#xfb02;" horiz-adv-x="1492" 
d="M1462 0h-653v246q55 15 123 24v936q-58 8 -121 8q-123 0 -171 -45t-48 -122v-29h182v-287h-182v-461q68 -9 123 -24v-246h-674v246q80 16 178 24v461h-178v287h178v29q0 243 147 357t500 114q190 0 439 -39v-1209q88 -8 157 -24v-246z" />
    </font>
</defs>
</svg>
